<?xml version="1.0" encoding="UTF-8"?>
<svg id="Layer_1" data-name="Layer 1" xmlns="http://www.w3.org/2000/svg" viewBox="0 0 612 792">
  <defs>
    <style>
      .cls-1 {
        fill: #6a0f34;
      }

      .cls-2 {
        fill: #211e1f;
      }

      .cls-3 {
        fill: #b22e3f;
      }
    </style>
  </defs>
  <g>
    <g>
      <path class="cls-3" d="M174.75,378.04c-2.06,0-4.93,0-8.33.02-.93-.08-2.45.31-1.85-.55,1.32-.9,2.96-2.59,4.34-3.2,1.37,0,3.09-.01,5.81-.02l-.03-3.93c-3.41.02-11.21.03-15.79.04-.93-.08-2.45.31-1.85-.55,1.32-.9,2.96-2.59,4.34-3.2,1.61,0,8.56-.03,13.28-.03l-.03-4.01c-.09.02-.17.06-.27.07-1.2.03-17.21.05-21.84.07-.77-.08-2.04.31-1.54-.55,1.1-.9,2.46-2.59,3.61-3.19,1.5,0,16.05-.06,19.84-.04l.18.03-.53-78.75c-.02-2.97-2.44-5.36-5.41-5.34l-49.26.33c-2.33,2.33-4.67,4.67-7,7-3.06,3.06-6.12,6.12-9.18,9.18-2.61,2.61-5.22,5.22-7.83,7.83l.56,82.69c.02,2.97,2.44,5.36,5.41,5.34l68.06-.46c2.97-.02,5.36-2.44,5.34-5.41l-.02-3.36Z"/>
      <path class="cls-1" d="M110.53,284.14l-15.11,15.11,18.56-.13c3.07-.02,5.54-2.52,5.51-5.59l-.12-18.24c-2.95,2.95-5.9,5.9-8.84,8.84Z"/>
    </g>
    <g>
      <g>
        <path class="cls-1" d="M340.23,378.41c-1.17,4.72-4.5,6.61-8.97,6.61-5.33,0-8.11-2.81-9.35-6.94-.58-1.93-.83-4.18-.83-6.54h23.26c.4-4.11.2-7.8-.72-10.79-1.57-5.06-5.24-8.16-11.62-8.16-7.01,0-11.69,3.42-13.96,9.04-1.08,2.65-1.62,5.8-1.62,9.3,0,2.52.22,4.9.76,7.06,1.53,6.34,5.66,10.68,14.14,10.68,4.85,0,11.33-2,12.86-10.16h.02c.09-.45.16-.94.2-1.44l-3.84-.4c-.09.63-.18,1.21-.34,1.75ZM322.68,361.46c1.53-3.1,4.36-5.37,8.86-5.37,4.23,0,6.63,1.87,7.8,4.81.79,2,1.03,4.5.9,7.26h-19.08c.04-2.34.52-4.7,1.53-6.7Z"/>
        <path class="cls-1" d="M400.85,367.15v20.7h-4.58v-20.16c0-4.27-.67-6.97-1.8-8.65h-.02c-1.42-2.16-3.53-2.67-5.87-2.67-2.72,0-5.26.9-6.99,3.1-1.46,1.84-2.38,4.56-2.38,8.43v19.96h-4.52v-20.03c0-3.71-.52-6.32-1.44-8.07-1.33-2.61-3.53-3.39-6.18-3.39-3.35,0-5.98,1.33-7.6,3.87-1.24,1.91-1.91,4.52-1.91,7.8v19.82h-4.58v-34.39h4.18l.27,5.6h.13c1.48-3.03,4.45-6.47,10.52-6.47s8.7,3.46,9.89,7.01c.02.09.07.18.09.27h.07c.04-.11.09-.2.16-.29,2.29-4.65,5.89-6.99,11.31-6.99,4.54,0,8.16,1.64,9.98,6.27.83,2.09,1.28,4.83,1.28,8.29Z"/>
        <path class="cls-1" d="M473.94,366.88v20.97h-4.52v-20.43c0-6.41-1.66-9.78-5.57-10.74h-.02c-.83-.22-1.73-.31-2.76-.31-1.37,0-2.56.18-3.62.54h-.02c-4.83,1.57-6.47,6.34-6.47,10.65v20.3h-4.59v-34.39h4.18l.13,3.66.07,1.87h.13c.29-.61.7-1.26,1.21-1.91,1.8-2.32,4.92-4.5,9.98-4.5,4.2,0,7.26,1.26,9.19,3.84,1.8,2.36,2.67,5.82,2.67,10.45Z"/>
        <path class="cls-1" d="M284.47,383.8h-3.64v-41.47h4.11c14.61,0,19.17,6.16,19.33,19.76.02.27.02.54.02.81,0,6.65-.99,11.46-3.26,14.77-3.01,4.38-8.29,6.14-16.56,6.14ZM309.2,359.35c-.81-14.7-7.46-20.99-25.26-20.99h-7.89v49.49h7.75c12.34,0,19.42-2.97,22.83-10.07.63-1.3,1.15-2.76,1.53-4.36.76-3.03,1.12-6.63,1.12-10.79v-.72c0-.88-.04-1.73-.09-2.56Z"/>
      </g>
      <g>
        <path class="cls-1" d="M194.72,281.89h9.95c18.36,0,24.64,7.45,24.64,22.91,0,16.56-6.48,24.2-24.71,24.2h-9.88v-47.11ZM205.76,322.26c10.53,0,15.02-4.36,15.02-17.14,0-11.81-4.04-16.49-14.76-16.49h-2.95v33.63h2.7Z"/>
        <path class="cls-1" d="M234.51,312.57c0-11.36,6.93-17.27,16.36-17.27s15.34,5.78,15.34,16.62c0,11.74-5.9,17.84-16.11,17.84s-15.6-6.29-15.6-17.2ZM258,312.31c0-6.8-2.05-11.1-7.44-11.1s-7.77,4.49-7.77,11.29,1.99,11.49,7.64,11.49,7.57-4.69,7.57-11.68Z"/>
        <path class="cls-1" d="M270.84,312.89c0-11.1,6.1-17.59,16.11-17.59,9.18,0,13.16,5.52,13.35,12.45l-7.06.58c-.39-5.07-2.95-7.19-6.55-7.19-4.56,0-7.64,3.21-7.64,11.55,0,7.57,2.57,11.17,7.51,11.17,3.98,0,5.9-2.05,6.55-6.55l6.93.51c-.9,8.98-6.99,11.94-13.93,11.94-10.85,0-15.27-7.25-15.27-16.88Z"/>
        <path class="cls-1" d="M305.62,316.22v-20.15h8.02v19.51c0,5.65,1.8,8.09,5.52,8.09,5.58,0,7.12-4.68,7.12-9.88v-17.71h8.02v32.92h-7.32l-.38-4.88h-.06c-1.48,2.44-4.04,5.65-9.88,5.65-7.06,0-11.04-4.11-11.04-13.54Z"/>
        <path class="cls-1" d="M341.95,296.07h7.38l.26,4.88h.19c1.54-2.95,4.23-5.65,9.43-5.65,5.65,0,8.41,2.76,9.69,6.55h.06c2.18-4.36,5.39-6.55,10.46-6.55,7.06,0,10.85,4.49,10.85,13.86v19.83h-8.02v-19.32c0-6.35-2.12-8.28-5.52-8.28-3.92,0-6.61,2.82-6.61,8.98v18.61h-8.02v-19.32c0-6.55-1.99-8.28-5.39-8.28-4.23,0-6.74,2.95-6.74,9.05v18.55h-8.02v-32.92Z"/>
        <path class="cls-1" d="M396.25,312.89c0-10.85,5.9-17.59,16.17-17.59s14.5,6.93,13.22,18.61h-21.18c0,5.46,1.73,9.95,7.57,9.95,3.59,0,6.22-1.67,6.8-6.03l6.74.64c-1.35,9.05-8.09,11.29-13.8,11.29-11.17,0-15.53-7.12-15.53-16.88ZM418.26,309.23c.26-4.88-1.54-8.53-6.42-8.53s-7.19,3.98-7.38,8.53h13.8Z"/>
        <path class="cls-1" d="M432.12,296.07h7.38l.26,4.81h.13c1.35-2.5,4.24-5.58,10.14-5.58,7.06,0,11.29,4.04,11.29,13.61v20.09h-8.02v-19.38c0-5.9-1.92-8.21-5.84-8.21-5.65,0-7.25,4.23-7.25,9.05v18.55h-8.09v-32.92Z"/>
        <path class="cls-1" d="M469.48,318.34v-16.68h-3.91v-5.58h3.91v-6.93l8.02-2.31v9.24h7.38v5.58h-7.38v15.72c0,4.56.96,6.48,4.43,6.48,1.35,0,2.44-.26,3.79-.64l.71,5.52c-1.35.51-3.66,1.03-6.48,1.03-7.25,0-10.46-3.59-10.46-11.42Z"/>
        <path class="cls-1" d="M489.25,319.69l7.06-1.03c.58,3.59,1.86,5.71,6.48,5.71,4.17,0,5.97-1.8,5.97-4.36,0-7.83-18.29-1.48-18.29-14.44,0-6.67,5.77-10.27,13.09-10.27,7.7,0,11.68,3.34,12.64,9.63l-6.87,1.16c-.51-3.47-2.12-5.39-5.84-5.39-3.4,0-5.39,1.22-5.39,3.85,0,7.51,18.48,1.03,18.48,14.44,0,6.99-6.22,10.78-13.86,10.78-8.09,0-12.51-3.01-13.48-10.07Z"/>
      </g>
      <path class="cls-2" d="M382.87,359.6l.31-.02c-.07.09-.11.18-.16.29h-.07c-.02-.09-.07-.18-.09-.27Z"/>
      <path class="cls-1" d="M438.93,385.01c-1.55,0-2.09-.88-2.09-3.03v-13.62c0-4.11-.43-7.87-2.02-10.65-1.78-3.15-5.01-5.12-10.72-5.12-6.47,0-10.2,2.23-11.64,5.89-.47,1.19-.7,2.52-.7,3.96,0,1.15.13,2.36.47,3.64l4.11-.34c-.2-1.15-.4-2.36-.4-3.51,0-1.48.27-2.85,1.1-3.91,1.1-1.39,3.15-2.29,6.79-2.29,2.23,0,4.23.47,5.75,1.87,1.69,1.51,2.74,4.16,2.74,8.52v1.82c-12.14.4-21.71,1.69-21.71,10.92,0,.18,0,.38.02.56.22,4.81,3.44,8.95,10.97,8.95,5.19,0,9.24-2.09,11.13-5.73.27,2.9,1.01,5.26,4.92,5.26.81,0,1.69-.13,2.76-.34v-3.03c-.54.13-1.01.2-1.48.2ZM422.81,385.22c-5.01,0-7.24-2.09-7.57-5.42-.02-.29-.04-.61-.04-.92,0-4.45,2.56-7.15,17.13-7.28v4.52c0,1.48-.29,2.83-.88,4-1.46,3.17-4.74,5.1-8.63,5.1Z"/>
      <path class="cls-1" d="M508.18,338.36v19.42h-.13c-.58-.94-1.26-1.78-2.09-2.47-1.87-1.69-4.41-2.72-7.82-2.72-3.73,0-6.88,1.12-9.26,3.3h-.02c-3.39,3.08-5.28,8.27-5.28,15.31,0,4.11.58,7.37,1.69,9.93,2.23,5.33,6.56,7.53,12.07,7.53,4.79,0,8.7-2.02,10.79-5.87h.2l.61,5.06h3.71v-49.49h-4.45ZM505.77,381.51c-1.87,2.63-4.63,3.64-7.78,3.64s-5.89-1.17-7.57-3.91h-.02c-1.35-2.23-2.11-5.48-2.11-9.98,0-10.11,3.78-15.1,10.38-15.1,5.53,0,9.78,3.37,9.78,14.16,0,5.26-.99,8.88-2.65,11.19h-.02Z"/>
      <g>
        <path class="cls-1" d="M226.95,364.74c-.18-8.18-4.7-12.72-13.15-12.7-9.51.02-15.42,5.66-17.85,13.75-.36,1.19-.65,2.45-.85,3.75-.27,1.75-.4,3.57-.38,5.46,0,.22,0,.43.02.63.22,8.09,4.74,12.59,13.15,12.56,8.79-.04,14.52-4.92,17.22-12,.7-1.75,1.17-3.64,1.48-5.64.27-1.69.4-3.51.38-5.33,0-.18,0-.34-.02-.49ZM208.5,383.42c-5.33,0-7.17-3.24-7.42-7.66-.02-.31-.02-.67-.02-1.01-.02-1.48.11-3.1.38-4.79.22-1.48.56-2.97,1.06-4.38,1.64-4.76,4.88-8.72,10.7-8.74,5.51-.02,7.28,3.44,7.42,8.14.02.2.02.4.02.61.02,1.48-.11,3.03-.31,4.65-.34,2-.88,4.02-1.69,5.87-1.8,4.11-4.97,7.3-10.14,7.33Z"/>
        <path class="cls-1" d="M263.86,362.43c0,.36,0,.72-.02,1.08-.07.97-.18,1.96-.31,2.97l-1.62,10.43-1.62,10.36h-6.2l1.62-10.47,1.51-9.69c.16-1.12.29-2.27.31-3.39v-.45c0-3.51-1.24-6.47-5.96-6.45-5.1,0-8.27,3.33-9.89,7.44-.54,1.33-.9,2.72-1.12,4.11l-1.21,8.11-1.64,10.83-6.27.02,1.69-10.97,1.82-11.89,1.8-11.69h5.6l-.4,4.99h.27c1.96-2.7,5.33-5.82,11.46-5.84,7.42,0,10.18,4.43,10.2,10.5Z"/>
      </g>
    </g>
  </g>
  <g>
    <g>
      <path class="cls-1" d="M321.01,548.99c-1.17,4.72-4.5,6.61-8.97,6.61-5.33,0-8.11-2.81-9.35-6.94-.58-1.93-.83-4.18-.83-6.54h23.26c.4-4.11.2-7.8-.72-10.79-1.57-5.06-5.24-8.16-11.62-8.16-7.01,0-11.69,3.42-13.96,9.04-1.08,2.65-1.62,5.8-1.62,9.3,0,2.52.22,4.9.76,7.06,1.53,6.34,5.66,10.68,14.14,10.68,4.85,0,11.33-2,12.86-10.16h.02c.09-.45.16-.94.2-1.44l-3.84-.4c-.09.63-.18,1.21-.34,1.75ZM303.46,532.04c1.53-3.1,4.36-5.37,8.86-5.37,4.23,0,6.63,1.87,7.8,4.81.79,2,1.03,4.5.9,7.26h-19.08c.04-2.34.52-4.7,1.53-6.7Z"/>
      <path class="cls-1" d="M381.63,537.73v20.7h-4.58v-20.16c0-4.27-.67-6.97-1.8-8.65h-.02c-1.42-2.16-3.53-2.67-5.87-2.67-2.72,0-5.26.9-6.99,3.1-1.46,1.84-2.38,4.56-2.38,8.43v19.96h-4.52v-20.03c0-3.71-.52-6.32-1.44-8.07-1.33-2.61-3.53-3.39-6.18-3.39-3.35,0-5.98,1.33-7.6,3.87-1.24,1.91-1.91,4.52-1.91,7.8v19.82h-4.58v-34.39h4.18l.27,5.6h.13c1.48-3.03,4.45-6.47,10.52-6.47s8.7,3.46,9.89,7.01c.02.09.07.18.09.27h.07c.04-.11.09-.2.16-.29,2.29-4.65,5.89-6.99,11.31-6.99,4.54,0,8.16,1.64,9.98,6.27.83,2.09,1.28,4.83,1.28,8.29Z"/>
      <path class="cls-1" d="M454.72,537.46v20.97h-4.52v-20.43c0-6.41-1.66-9.78-5.57-10.74h-.02c-.83-.22-1.73-.31-2.76-.31-1.37,0-2.56.18-3.62.54h-.02c-4.83,1.57-6.47,6.34-6.47,10.65v20.3h-4.59v-34.39h4.18l.13,3.66.07,1.87h.13c.29-.61.7-1.26,1.21-1.91,1.8-2.32,4.92-4.5,9.98-4.5,4.2,0,7.26,1.26,9.19,3.84,1.8,2.36,2.67,5.82,2.67,10.45Z"/>
      <path class="cls-1" d="M265.25,554.38h-3.64v-41.47h4.11c14.61,0,19.17,6.16,19.33,19.76.02.27.02.54.02.81,0,6.65-.99,11.46-3.26,14.77-3.01,4.38-8.29,6.14-16.56,6.14ZM289.97,529.93c-.81-14.7-7.46-20.99-25.26-20.99h-7.89v49.49h7.75c12.34,0,19.42-2.97,22.83-10.07.63-1.3,1.15-2.76,1.53-4.36.76-3.03,1.12-6.63,1.12-10.79v-.72c0-.88-.04-1.73-.09-2.56Z"/>
    </g>
    <g>
      <path class="cls-1" d="M175.5,452.47h9.95c18.36,0,24.64,7.45,24.64,22.91,0,16.56-6.48,24.2-24.71,24.2h-9.88v-47.11ZM186.54,492.84c10.53,0,15.02-4.36,15.02-17.14,0-11.81-4.04-16.49-14.76-16.49h-2.95v33.63h2.7Z"/>
      <path class="cls-1" d="M215.29,483.15c0-11.36,6.93-17.27,16.36-17.27s15.34,5.78,15.34,16.62c0,11.74-5.9,17.84-16.11,17.84s-15.6-6.29-15.6-17.2ZM238.78,482.89c0-6.8-2.05-11.1-7.44-11.1s-7.77,4.49-7.77,11.29,1.99,11.49,7.64,11.49,7.57-4.69,7.57-11.68Z"/>
      <path class="cls-1" d="M251.61,483.47c0-11.1,6.1-17.59,16.11-17.59,9.18,0,13.16,5.52,13.35,12.45l-7.06.58c-.39-5.07-2.95-7.19-6.55-7.19-4.56,0-7.64,3.21-7.64,11.55,0,7.57,2.57,11.17,7.51,11.17,3.98,0,5.9-2.05,6.55-6.55l6.93.51c-.9,8.98-6.99,11.94-13.93,11.94-10.85,0-15.27-7.25-15.27-16.88Z"/>
      <path class="cls-1" d="M286.4,486.8v-20.15h8.02v19.51c0,5.65,1.8,8.09,5.52,8.09,5.58,0,7.12-4.68,7.12-9.88v-17.71h8.02v32.92h-7.32l-.38-4.88h-.06c-1.48,2.44-4.04,5.65-9.88,5.65-7.06,0-11.04-4.11-11.04-13.54Z"/>
      <path class="cls-1" d="M322.73,466.65h7.38l.26,4.88h.19c1.54-2.95,4.23-5.65,9.43-5.65,5.65,0,8.41,2.76,9.69,6.55h.06c2.18-4.36,5.39-6.55,10.46-6.55,7.06,0,10.85,4.49,10.85,13.86v19.83h-8.02v-19.32c0-6.35-2.12-8.28-5.52-8.28-3.92,0-6.61,2.82-6.61,8.98v18.61h-8.02v-19.32c0-6.55-1.99-8.28-5.39-8.28-4.23,0-6.74,2.95-6.74,9.05v18.55h-8.02v-32.92Z"/>
      <path class="cls-1" d="M377.02,483.47c0-10.85,5.9-17.59,16.17-17.59s14.5,6.93,13.22,18.61h-21.18c0,5.46,1.73,9.95,7.57,9.95,3.59,0,6.22-1.67,6.8-6.03l6.74.64c-1.35,9.05-8.09,11.29-13.8,11.29-11.17,0-15.53-7.12-15.53-16.88ZM399.03,479.81c.26-4.88-1.54-8.53-6.42-8.53s-7.19,3.98-7.38,8.53h13.8Z"/>
      <path class="cls-1" d="M412.9,466.65h7.38l.26,4.81h.13c1.35-2.5,4.24-5.58,10.14-5.58,7.06,0,11.29,4.04,11.29,13.61v20.09h-8.02v-19.38c0-5.9-1.92-8.21-5.84-8.21-5.65,0-7.25,4.23-7.25,9.05v18.55h-8.09v-32.92Z"/>
      <path class="cls-1" d="M450.25,488.92v-16.68h-3.91v-5.58h3.91v-6.93l8.02-2.31v9.24h7.38v5.58h-7.38v15.72c0,4.56.96,6.48,4.43,6.48,1.35,0,2.44-.26,3.79-.64l.71,5.52c-1.35.51-3.66,1.03-6.48,1.03-7.25,0-10.46-3.59-10.46-11.42Z"/>
      <path class="cls-1" d="M470.02,490.27l7.06-1.03c.58,3.59,1.86,5.71,6.48,5.71,4.17,0,5.97-1.8,5.97-4.36,0-7.83-18.29-1.48-18.29-14.44,0-6.67,5.77-10.27,13.09-10.27,7.7,0,11.68,3.34,12.64,9.63l-6.87,1.16c-.51-3.47-2.12-5.39-5.84-5.39-3.4,0-5.39,1.22-5.39,3.85,0,7.51,18.48,1.03,18.48,14.44,0,6.99-6.22,10.78-13.86,10.78-8.09,0-12.51-3.01-13.48-10.07Z"/>
    </g>
    <path class="cls-2" d="M363.65,530.17l.31-.02c-.07.09-.11.18-.16.29h-.07c-.02-.09-.07-.18-.09-.27Z"/>
    <path class="cls-1" d="M419.7,555.59c-1.55,0-2.09-.88-2.09-3.03v-13.62c0-4.11-.43-7.87-2.02-10.65-1.78-3.15-5.01-5.12-10.72-5.12-6.47,0-10.2,2.23-11.64,5.89-.47,1.19-.7,2.52-.7,3.96,0,1.15.13,2.36.47,3.64l4.11-.34c-.2-1.15-.4-2.36-.4-3.51,0-1.48.27-2.85,1.1-3.91,1.1-1.39,3.15-2.29,6.79-2.29,2.23,0,4.23.47,5.75,1.87,1.69,1.51,2.74,4.16,2.74,8.52v1.82c-12.14.4-21.71,1.69-21.71,10.92,0,.18,0,.38.02.56.22,4.81,3.44,8.95,10.97,8.95,5.19,0,9.24-2.09,11.13-5.73.27,2.9,1.01,5.26,4.92,5.26.81,0,1.69-.13,2.76-.34v-3.03c-.54.13-1.01.2-1.48.2ZM403.59,555.8c-5.01,0-7.24-2.09-7.57-5.42-.02-.29-.04-.61-.04-.92,0-4.45,2.56-7.15,17.13-7.28v4.52c0,1.48-.29,2.83-.88,4-1.46,3.17-4.74,5.1-8.63,5.1Z"/>
    <path class="cls-1" d="M488.95,508.94v19.42h-.13c-.58-.94-1.26-1.78-2.09-2.47-1.87-1.69-4.41-2.72-7.82-2.72-3.73,0-6.88,1.12-9.26,3.3h-.02c-3.39,3.08-5.28,8.27-5.28,15.31,0,4.11.58,7.37,1.69,9.93,2.23,5.33,6.56,7.53,12.07,7.53,4.79,0,8.7-2.02,10.79-5.87h.2l.61,5.06h3.71v-49.49h-4.45ZM486.55,552.09c-1.87,2.63-4.63,3.64-7.78,3.64s-5.89-1.17-7.57-3.91h-.02c-1.35-2.23-2.11-5.48-2.11-9.98,0-10.11,3.78-15.1,10.38-15.1,5.53,0,9.78,3.37,9.78,14.16,0,5.26-.99,8.88-2.65,11.19h-.02Z"/>
    <g>
      <path class="cls-1" d="M207.73,535.32c-.18-8.18-4.7-12.72-13.15-12.7-9.51.02-15.42,5.66-17.85,13.75-.36,1.19-.65,2.45-.85,3.75-.27,1.75-.4,3.57-.38,5.46,0,.22,0,.43.02.63.22,8.09,4.74,12.59,13.15,12.56,8.79-.04,14.52-4.92,17.22-12,.7-1.75,1.17-3.64,1.48-5.64.27-1.69.4-3.51.38-5.33,0-.18,0-.34-.02-.49ZM189.28,554c-5.33,0-7.17-3.24-7.42-7.66-.02-.31-.02-.67-.02-1.01-.02-1.48.11-3.1.38-4.79.22-1.48.56-2.97,1.06-4.38,1.64-4.76,4.88-8.72,10.7-8.74,5.51-.02,7.28,3.44,7.42,8.14.02.2.02.4.02.61.02,1.48-.11,3.03-.31,4.65-.34,2-.88,4.02-1.69,5.87-1.8,4.11-4.97,7.3-10.14,7.33Z"/>
      <path class="cls-1" d="M244.63,533.01c0,.36,0,.72-.02,1.08-.07.97-.18,1.96-.31,2.97l-1.62,10.43-1.62,10.36h-6.2l1.62-10.47,1.51-9.69c.16-1.12.29-2.27.31-3.39v-.45c0-3.51-1.24-6.47-5.96-6.45-5.1,0-8.27,3.33-9.89,7.44-.54,1.33-.9,2.72-1.12,4.11l-1.21,8.11-1.64,10.83-6.27.02,1.69-10.97,1.82-11.89,1.8-11.69h5.6l-.4,4.99h.27c1.96-2.7,5.33-5.82,11.46-5.84,7.42,0,10.18,4.43,10.2,10.5Z"/>
    </g>
  </g>
</svg>