<?xml version="1.0" encoding="UTF-8"?>
<svg id="Layer_1" data-name="Layer 1" xmlns="http://www.w3.org/2000/svg" xmlns:xlink="http://www.w3.org/1999/xlink" viewBox="0 0 99.28 143.55">
  <defs>
    <style>
      .cls-1 {
        clip-path: url(#clippath-21);
      }

      .cls-2 {
        letter-spacing: 0em;
      }

      .cls-3 {
        clip-path: url(#clippath-6);
      }

      .cls-4 {
        clip-path: url(#clippath-7);
      }

      .cls-5 {
        clip-path: url(#clippath-17);
      }

      .cls-6 {
        clip-path: url(#clippath-31);
      }

      .cls-7 {
        clip-path: url(#clippath-15);
      }

      .cls-8 {
        clip-path: url(#clippath-33);
      }

      .cls-9 {
        clip-path: url(#clippath-18);
      }

      .cls-10 {
        clip-path: url(#clippath-4);
      }

      .cls-11 {
        fill: #c9a82d;
      }

      .cls-12 {
        clip-path: url(#clippath-22);
      }

      .cls-13 {
        clip-path: url(#clippath-23);
      }

      .cls-14 {
        fill: #777b7b;
      }

      .cls-15 {
        clip-path: url(#clippath-9);
      }

      .cls-16 {
        clip-path: url(#clippath-10);
      }

      .cls-17, .cls-18, .cls-19, .cls-20, .cls-21, .cls-22, .cls-23, .cls-24, .cls-25 {
        fill: #fff;
      }

      .cls-26 {
        clip-path: url(#clippath-25);
      }

      .cls-27 {
        clip-path: url(#clippath-27);
      }

      .cls-28 {
        letter-spacing: .11em;
      }

      .cls-29 {
        fill: #c5c7c6;
      }

      .cls-30 {
        clip-path: url(#clippath-11);
      }

      .cls-18 {
        font-size: .32px;
      }

      .cls-18, .cls-19, .cls-20, .cls-21, .cls-23, .cls-24 {
        font-family: CRTTV, 'CRT TV';
      }

      .cls-31 {
        fill: none;
      }

      .cls-32 {
        clip-path: url(#clippath-28);
      }

      .cls-19 {
        font-size: .38px;
      }

      .cls-33 {
        letter-spacing: .11em;
      }

      .cls-34 {
        fill: #162323;
      }

      .cls-35 {
        clip-path: url(#clippath-1);
      }

      .cls-36, .cls-22, .cls-25 {
        font-family: CRTTVperiod, 'CRT TV period';
      }

      .cls-36, .cls-25 {
        font-size: .62px;
      }

      .cls-20 {
        font-size: .44px;
      }

      .cls-37 {
        fill: #bac4c4;
      }

      .cls-38 {
        clip-path: url(#clippath-5);
      }

      .cls-39 {
        clip-path: url(#clippath-20);
      }

      .cls-40 {
        clip-path: url(#clippath-8);
      }

      .cls-21 {
        font-size: 7.58px;
      }

      .cls-41 {
        clip-path: url(#clippath-3);
      }

      .cls-42 {
        clip-path: url(#clippath-26);
      }

      .cls-43 {
        clip-path: url(#clippath-12);
      }

      .cls-44 {
        clip-path: url(#clippath-14);
      }

      .cls-45 {
        fill: #df1e26;
      }

      .cls-46 {
        fill: #bbc4c4;
      }

      .cls-47 {
        fill: #919494;
      }

      .cls-48 {
        clip-path: url(#clippath-30);
      }

      .cls-49 {
        clip-path: url(#clippath-19);
      }

      .cls-50 {
        letter-spacing: 0em;
      }

      .cls-51 {
        clip-path: url(#clippath-32);
      }

      .cls-52 {
        fill: #011010;
      }

      .cls-22 {
        font-size: 1.33px;
      }

      .cls-53 {
        fill: #fdedf4;
      }

      .cls-54 {
        fill: #666a6a;
      }

      .cls-55 {
        letter-spacing: -.14em;
      }

      .cls-56 {
        clip-path: url(#clippath-16);
      }

      .cls-57 {
        clip-path: url(#clippath-2);
      }

      .cls-23 {
        font-size: 1.39px;
      }

      .cls-58 {
        clip-path: url(#clippath-29);
      }

      .cls-59 {
        clip-path: url(#clippath-13);
      }

      .cls-24 {
        font-size: .76px;
      }

      .cls-60 {
        clip-path: url(#clippath-24);
      }

      .cls-61 {
        fill: #0a2627;
      }

      .cls-62 {
        clip-path: url(#clippath);
      }
    </style>
    <clipPath id="clippath">
      <path class="cls-31" d="M14.21,115.91c0,.46,74.95,1.4,74.95,0,0,.79,0-24.33,0-48.26V19.4c0-1.19-74.95-.25-74.95,0,0-1.81,0,25.13,0,48.26v48.26Z"/>
    </clipPath>
    <clipPath id="clippath-1">
      <path class="cls-31" d="M14.21,115.91c0,2.18,74.95.64,74.95,0v-48.26c0-24.79,0-49.4,0-48.26,0-.52-74.95-1.3-74.95,0v96.51Z"/>
    </clipPath>
    <clipPath id="clippath-2">
      <path class="cls-31" d="M24.48,82.14c.29,2.8.6-1.82.92.28,0,.68,0,.83,0-.28,0-.32-.92-.88-.92,0Z"/>
    </clipPath>
    <clipPath id="clippath-3">
      <path class="cls-31" d="M25.34,82.14c0,.08,0,1.37,0,.27.18-.06.37-.5.56.08,0,.85.72.32.72,0,.5,0,.97-.14,1.41-.35,0-.07-2.7-.86-2.7,0Z"/>
    </clipPath>
    <clipPath id="clippath-4">
      <path class="cls-31" d="M21.91,79.29c.14-.86.36-.57.64,1.3,0-.9,0-3.67,0-1.3,0-1.03-.64.34-.64,0Z"/>
    </clipPath>
    <clipPath id="clippath-5">
      <path class="cls-31" d="M22.49,79.29c0,1.79,0,2.67,0,1.21.52-1.02,1.27,1.27,2.15,1.7,0-.02.76-.62.76,0,0,2.12,0-3.72,0-2.91,0-1.26-2.91-2.09-2.91,0Z"/>
    </clipPath>
    <clipPath id="clippath-6">
      <path class="cls-31" d="M25.34,79.29c0,1.76,0,3.51,0,2.91,0-.08,2.54.51,2.54,0,.13,2.49.25-.51.37-.16,0,2.05,0-.57,0-2.75,0-.12-2.91.37-2.91,0Z"/>
    </clipPath>
    <clipPath id="clippath-7">
      <path class="cls-31" d="M28.18,79.29c0-.22,0,2.02,0,2.78,1.15-2.18,2.04-.71,2.43-2.78,0,.22-2.43.47-2.43,0Z"/>
    </clipPath>
    <clipPath id="clippath-8">
      <path class="cls-31" d="M21.96,76.44c-.16-.14-.25-.9-.25,1.5,0,.33.08.77.22,1.41,0-.31.62-.07.62,0,0,1.64,0-2.79,0-2.91,0-.75-.59,1.73-.59,0Z"/>
    </clipPath>
    <clipPath id="clippath-9">
      <path class="cls-31" d="M22.49,79.35c0-1.1,2.91-.86,2.91,0,0-1,0-3.22,0-2.91,0,.34-2.91-.89-2.91,0,0,.53,0,4.27,0,2.91Z"/>
    </clipPath>
    <clipPath id="clippath-10">
      <path class="cls-31" d="M25.34,79.35c0,1.33,2.91,1.91,2.91,0v-2.91c0-.36-2.91-.34-2.91,0,0-.44,0,.83,0,2.91Z"/>
    </clipPath>
    <clipPath id="clippath-11">
      <path class="cls-31" d="M28.18,76.44c0-1.68,0,2.39,0,2.91,0,.3,2.41-1.23,2.41,0,.08-1.52.14-2.49.18-.78,0-.18,0-1.81,0-1.25-.04-1.07-.11.04-.21-.88,0-.2-2.37.69-2.37,0Z"/>
    </clipPath>
    <clipPath id="clippath-12">
      <path class="cls-31" d="M21.94,76.51c0-.09.61-1.35.61,0,0-1.84,0-1.22,0-1.2-.26,1.41-.47,1.54-.61,1.2"/>
    </clipPath>
    <clipPath id="clippath-13">
      <path class="cls-31" d="M24.91,73.6c-1,.77-1.85.44-2.42,1.8,0-2.2,0,2.36,0,1.11,0-.25,2.91-1.88,2.91,0,0,.7,0-2.92,0-2.91,0-2.35-.49.3-.49,0Z"/>
    </clipPath>
    <clipPath id="clippath-14">
      <path class="cls-31" d="M25.34,73.6c0-.5,0,4.3,0,2.91,0-1.2,2.91-.82,2.91,0,0-.58,0-3.92,0-2.66-.21-1.11-.42,1.03-.64-.25,0-.15-2.27-1.54-2.27,0Z"/>
    </clipPath>
    <clipPath id="clippath-15">
      <path class="cls-31" d="M28.18,76.51c0,.44,2.39-.8,2.39,0-.4,1.04-1.27-2.17-2.39-2.69,0-1.44,0,2.83,0,2.69Z"/>
    </clipPath>
    <clipPath id="clippath-16">
      <path class="cls-31" d="M24.72,73.66c0-.97.68-1.76.68,0,0-2.36,0,2.02,0-.18-.23-.34-.46,1.93-.68.18"/>
    </clipPath>
    <clipPath id="clippath-17">
      <path class="cls-31" d="M25.34,73.49c0,.42,0-.44,0,.17s2.46-1.84,2.46,0c-.48-.19-1,.34-1.53-.27-.32-1.32-.62-2.27-.92.09"/>
    </clipPath>
    <clipPath id="clippath-18">
      <path class="cls-31" d="M73.24,82.14c.29-1.98.6-1.44.92.28,0,1.45,0,1.11,0-.28,0,.22-.92,1.54-.92,0Z"/>
    </clipPath>
    <clipPath id="clippath-19">
      <path class="cls-31" d="M74.09,82.14c0-2.18,0-1.65,0,.27.18,1.93.37-.53.56.08,0,.97.72.16.72,0,.5,1.17.97-.49,1.41-.35,0-2.72-2.7.29-2.7,0Z"/>
    </clipPath>
    <clipPath id="clippath-20">
      <path class="cls-31" d="M70.67,79.29c.14,1.06.36.98.64,1.3,0-1.42,0-.2,0-1.3,0-.04-.64.92-.64,0Z"/>
    </clipPath>
    <clipPath id="clippath-21">
      <path class="cls-31" d="M71.25,79.29c0-2.53,0,1.89,0,1.21.52.94,1.27.83,2.15,1.7,0,.19.76,1.43.76,0,0,.15,0-.35,0-2.91,0-2.9-2.91.04-2.91,0Z"/>
    </clipPath>
    <clipPath id="clippath-22">
      <path class="cls-31" d="M74.09,79.29c0,.61,0,4.5,0,2.91,0-.67,2.54-2.56,2.54,0,.13-2.22.25.4.37-.16v-2.75c0,1.8-2.91.05-2.91,0Z"/>
    </clipPath>
    <clipPath id="clippath-23">
      <path class="cls-31" d="M76.94,79.29c0-.08,0,3.81,0,2.78,1.15-2.7,2.04-2.95,2.43-2.78,0-.19-2.43-.57-2.43,0Z"/>
    </clipPath>
    <clipPath id="clippath-24">
      <path class="cls-31" d="M70.72,76.44c-.16-1.03-.25,2.38-.25,1.5,0,1.63.08-1.25.22,1.41,0-1.87.62-1.76.62,0,0,1.02,0-4.75,0-2.91,0,.44-.59-1.82-.59,0Z"/>
    </clipPath>
    <clipPath id="clippath-25">
      <path class="cls-31" d="M71.25,79.35c0,.26,2.91-.09,2.91,0,0-2.03,0-4.54,0-2.91,0,.27-2.91-.67-2.91,0v2.91Z"/>
    </clipPath>
    <clipPath id="clippath-26">
      <path class="cls-31" d="M74.09,79.35c0,2.62,2.91.32,2.91,0,0-.02,0-3.32,0-2.91,0,2.13-2.91.85-2.91,0,0-.98,0,3.42,0,2.91Z"/>
    </clipPath>
    <clipPath id="clippath-27">
      <path class="cls-31" d="M76.94,76.44c0-.81,0,.65,0,2.91,0,2.65,2.41-1.2,2.41,0,.08-1.29.14.69.18-.78,0-1.94,0-1.51,0-1.25-.04,1.34-.11.33-.21-.88,0,1.27-2.37.02-2.37,0Z"/>
    </clipPath>
    <clipPath id="clippath-28">
      <path class="cls-31" d="M70.7,76.51c0,1.59.61.1.61,0v-1.2c-.26.98-.47.3-.61,1.2"/>
    </clipPath>
    <clipPath id="clippath-29">
      <path class="cls-31" d="M73.67,73.6c-1,1.6-1.85,1.72-2.42,1.8,0-1.17,0,1.13,0,1.11,0,1.49,2.91-1.15,2.91,0,0,1.96,0-2.39,0-2.91,0,.19-.49-.37-.49,0Z"/>
    </clipPath>
    <clipPath id="clippath-30">
      <path class="cls-31" d="M74.09,73.6v2.91c0,1.24,2.91,1.56,2.91,0,0,.44,0-3.94,0-2.66-.21-.37-.42,1.28-.64-.25,0,1.06-2.27.77-2.27,0Z"/>
    </clipPath>
    <clipPath id="clippath-31">
      <path class="cls-31" d="M76.94,76.51c0,1.12,2.39.94,2.39,0-.4-1.45-1.27-1.28-2.39-2.69,0-.02,0,.65,0,2.69Z"/>
    </clipPath>
    <clipPath id="clippath-32">
      <path class="cls-31" d="M73.48,73.66c0,1.2.68-2.19.68,0,0-.98,0,.7,0-.18-.23,1.67-.46-.03-.68.18"/>
    </clipPath>
    <clipPath id="clippath-33">
      <path class="cls-31" d="M74.09,73.49c0,.89,0-.92,0,.17,0-1.06,2.46,1.88,2.46,0-.48-2.32-1-.56-1.53-.27-.32.95-.62.33-.92.09"/>
    </clipPath>
  </defs>
  <path class="cls-17" d="M11.41,116.58c0-.72,19.34,1.16,38.68,0,19.34-.52,38.68,1.39,38.68,0V16.46c0,.28-19.34,2.79-38.68,0-19.34-2.51-38.68-1.29-38.68,0v100.12Z"/>
  <path class="cls-52" d="M14.82,113.18c0-.5,70.54-.85,70.54,0v-46.62c0-25.99,0-47.95,0-46.62,0-1.18-70.54.12-70.54,0v93.25Z"/>
  <text class="cls-24" transform="translate(23.44 90.14)"><tspan x="0" y="0">RTF</tspan></text>
  <text class="cls-22" transform="translate(34.92 90.29)"><tspan x="0" y="0">1</tspan></text>
  <text class="cls-22" transform="translate(38.15 90.29)"><tspan x="0" y="0">2</tspan></text>
  <text class="cls-22" transform="translate(41.42 90.29)"><tspan x="0" y="0">3</tspan></text>
  <text class="cls-22" transform="translate(44.71 90.29)"><tspan x="0" y="0">4</tspan></text>
  <text class="cls-22" transform="translate(48.13 90.29)"><tspan x="0" y="0">5</tspan></text>
  <text class="cls-22" transform="translate(51.4 90.29)"><tspan x="0" y="0">6</tspan></text>
  <text class="cls-22" transform="translate(54.7 90.29)"><tspan x="0" y="0">7</tspan></text>
  <text class="cls-22" transform="translate(58.02 90.29)"><tspan x="0" y="0">8</tspan></text>
  <text class="cls-22" transform="translate(61.34 90.29)"><tspan x="0" y="0">9</tspan></text>
  <text class="cls-22" transform="translate(64.66 90.29)"><tspan x="0" y="0">0</tspan></text>
  <g class="cls-62">
    <text class="cls-21" transform="translate(31.56 107.32)"><tspan x="0" y="0">CRT TV</tspan></text>
    <path class="cls-47" d="M17.08,21.17c-.42-.97-.76.17-.76.76v71.28c0-.89.34,1.83.76.76,0,.41,66.01-.57,66.01,0,.42-1.77.76,1.54.76-.76,0-1.01,0-71.5,0-71.28,0-3.05-.34-.63-.76-.76,0-.38-66.01-.7-66.01,0Z"/>
    <path class="cls-54" d="M36.36,74.54c-.42,1.39-.76.69-.76.76,0-.13,0,4.83,0,4.29,0-.25.34,1.28.76.76,0-.37,28.98-1.07,28.98,0,.42,2.35.76-2.16.76-.76,0,.9,0-4.45,0-4.29,0-2.62-.34.21-.76-.76,0-.9-28.98.01-28.98,0Z"/>
    <path class="cls-61" d="M21.6,25.73c-.42-.04-.76,1.46-.76.76,0-.34,0,44.73,0,43.75,0-.54.34-1.35.76.76,0-.29,56.97-1.42,56.97,0,.42-1.18.76.9.76-.76V26.49c0-1.82-.34,1.3-.76-.76,0-1.22-56.97,1.35-56.97,0Z"/>
    <path class="cls-14" d="M35.89,74.3c-.42-1.16-.76.78-.76.76,0-1.17,0,3.15,0,4.29,0-1.53.34,1.58.76.76,0-.53,28.98-2.27,28.98,0,.42-.24.76.47.76-.76,0,.32,0-2.76,0-4.29,0-.67-.34-2.44-.76-.76,0,.7-28.98-1.32-28.98,0Z"/>
    <path class="cls-54" d="M20.61,88.79c1.13-2.38,2.05,1.11,2.05-2.05,0-3.9-.92-3.31-2.05-2.05-1.13-.44-2.05.95-2.05,2.05,0,3.42.92,1.57,2.05,2.05"/>
    <path class="cls-14" d="M20.51,88.68c1.13,1.56,2.05-.88,2.05-2.05,0-1.01-.92-.51-2.05-2.05-1.13-.84-2.05-.9-2.05,2.05,0-1.62.92,1.54,2.05,2.05"/>
    <path class="cls-54" d="M24.54,91.35c.75.73,1.37.91,1.37-1.43,0-.31-.61-2.03-1.37-1.43-.75.64-1.37.68-1.37,1.43,0,1.83.61.17,1.37,1.43"/>
    <path class="cls-14" d="M24.42,91.32c.75.74,1.37.65,1.37-1.43,0,1.29-.61-1.1-1.37-1.43-.75-.38-1.37,1.16-1.37,1.43,0,1.23.61,1.3,1.37,1.43"/>
    <path class="cls-54" d="M35.53,91.36c.75.31,1.37,1.73,1.37-1.43,0,1.76-.61.71-1.37-1.43-.75-1.03-1.37.9-1.37,1.43,0,.73.61.98,1.37,1.43"/>
    <path class="cls-54" d="M38.84,91.36c.75-1.48,1.37-1.46,1.37-1.43,0,.31-.61-1.31-1.37-1.43-.75-1.2-1.37.98-1.37,1.43,0,.54.61,3.02,1.37,1.43"/>
    <path class="cls-14" d="M42.28,91.36c.75-.12,1.37-.37,1.37-1.43,0-1.79-.61-.34-1.37-1.43-.75,1.11-1.37.47-1.37,1.43,0,2.37.61.67,1.37,1.43"/>
    <path class="cls-54" d="M45.46,91.36c.75.69,1.37-2.59,1.37-1.43,0-.56-.61-2.73-1.37-1.43-.75.62-1.37,2.67-1.37,1.43,0-.91.61,3.17,1.37,1.43"/>
    <path class="cls-54" d="M48.79,91.36c.75-.14,1.37,1.5,1.37-1.43,0-2.19-.61-1.59-1.37-1.43-.75,1.99-1.37-.16-1.37,1.43,0,.92.61,1.08,1.37,1.43"/>
    <path class="cls-54" d="M52.11,91.36c.75,2.64,1.37.44,1.37-1.43,0-.12-.61-1.57-1.37-1.43-.75,1.7-1.37,2.25-1.37,1.43,0,.14.61,2.51,1.37,1.43"/>
    <path class="cls-54" d="M55.38,91.36c.75.41,1.37-1.28,1.37-1.43,0,.91-.61-1.95-1.37-1.43-.75,2.02-1.37.36-1.37,1.43,0-1.22.61,1.79,1.37,1.43"/>
    <path class="cls-54" d="M58.69,91.36c.75.01,1.37-.16,1.37-1.43,0-.7-.61-1.18-1.37-1.43-.75,1.27-1.37.86-1.37,1.43,0,1.66.61.59,1.37,1.43"/>
    <path class="cls-54" d="M61.99,91.36c.75,1.87,1.37-1.77,1.37-1.43,0-.37-.61-2.18-1.37-1.43-.75.81-1.37,1.62-1.37,1.43,0-.05.61.17,1.37,1.43"/>
    <path class="cls-54" d="M65.32,91.36c.75.11,1.37-2.14,1.37-1.43,0-3.13-.61-.44-1.37-1.43-.75-.15-1.37.97-1.37,1.43,0,.64.61.63,1.37,1.43"/>
    <path class="cls-14" d="M35.41,91.32c.75.16,1.37-2.62,1.37-1.43,0-.21-.61-3.32-1.37-1.43-.75.74-1.37,2.58-1.37,1.43,0-1.75.61,4.02,1.37,1.43"/>
    <path class="cls-14" d="M48.64,91.32c.75,1.06,1.37-1.49,1.37-1.43,0-.92-.61-2.42-1.37-1.43-.75,1.65-1.37.35-1.37,1.43s.61,3.04,1.37,1.43"/>
    <path class="cls-11" d="M74.33,91.55c.75-2.26,1.37-1.42,1.37-1.43,0,1.51-.61-1.55-1.37-1.43-.75-.72-1.37.39-1.37,1.43,0,2.21.61,3.14,1.37,1.43"/>
    <path class="cls-53" d="M77.45,91.55c.75-1.27,1.37-2.97,1.37-1.43,0-.78-.61-1.26-1.37-1.43-.75-.27-1.37,1.8-1.37,1.43,0,1.81.61,2.89,1.37,1.43"/>
    <path class="cls-14" d="M74.33,90.93c.43.43.77-2.13.77-.81,0-.94-.35.45-.77-.81-.43-.05-.77-1.25-.77.81,0,.38.35.83.77.81"/>
    <path class="cls-45" d="M80.56,91.55c.75.41,1.37.11,1.37-1.43,0-.28-.61-1.35-1.37-1.43-.75.95-1.37,2.67-1.37,1.43,0,.02.61-.12,1.37,1.43"/>
    <path class="cls-14" d="M77.45,90.93c.43-.06.77-.07.77-.81,0,.57-.35.76-.77-.81-.43.21-.77.32-.77.81,0,1.14.35,1.47.77.81"/>
    <path class="cls-14" d="M80.56,90.93c.43.18.77-.84.77-.81,0-.51-.35-2.08-.77-.81-.43.57-.77-.26-.77.81,0-1.77.35-.3.77.81"/>
    <path class="cls-14" d="M38.72,91.32c.75,2.17,1.37.34,1.37-1.43,0-2.3-.61-3.27-1.37-1.43-.75.89-1.37.49-1.37,1.43,0,1.12.61,2.02,1.37,1.43"/>
    <path class="cls-14" d="M51.95,91.32c.75-2.87,1.37-.36,1.37-1.43,0-1.96-.61-.62-1.37-1.43-.75-.26-1.37-.38-1.37,1.43,0-1,.61,1.64,1.37,1.43"/>
    <path class="cls-54" d="M42.03,91.32c.75-.77,1.37-2.83,1.37-1.43,0,.3-.61-.69-1.37-1.43-.75-1.42-1.37-1.81-1.37,1.43,0,1.16.61,2.59,1.37,1.43"/>
    <path class="cls-14" d="M55.25,91.32c.75-.76,1.37-1.68,1.37-1.43,0-.58-.61.43-1.37-1.43-.75-.4-1.37-1.3-1.37,1.43,0-1.68.61-1.24,1.37,1.43"/>
    <path class="cls-14" d="M61.87,91.32c.75-.73,1.37-1.09,1.37-1.43,0-1.9-.61-.18-1.37-1.43-.75-.4-1.37,2.91-1.37,1.43,0,.62.61-.27,1.37,1.43"/>
    <path class="cls-14" d="M65.19,91.32c.75,1.05,1.37.71,1.37-1.43,0,1.09-.61.64-1.37-1.43-.75-.78-1.37-.58-1.37,1.43,0-1.44.61,3.23,1.37,1.43"/>
    <path class="cls-14" d="M45.33,91.32c.75-.05,1.37-.24,1.37-1.43,0,1.26-.61.25-1.37-1.43-.75-1.18-1.37.92-1.37,1.43,0,1.5.61,1.92,1.37,1.43"/>
    <path class="cls-14" d="M58.56,91.32c.75,1.08,1.37-1.54,1.37-1.43,0,.65-.61-1.5-1.37-1.43-.75.28-1.37-.94-1.37,1.43,0-.91.61,3.04,1.37,1.43"/>
  </g>
  <path class="cls-29" d="M20.84,51.32c0,.66,58.49-2.26,58.49,0,0-.98,0-4.73,0-4.63,0,1.11-58.49-1.1-58.49,0,0-1.01,0,5.04,0,4.63Z"/>
  <text class="cls-25" transform="translate(65.13 34.22)"><tspan x="0" y="0">-</tspan></text>
  <text class="cls-25" transform="translate(65.06 42.33)"><tspan x="0" y="0">-</tspan></text>
  <text class="cls-36" transform="translate(65.06 48.3)"><tspan x="0" y="0">-</tspan></text>
  <text class="cls-20" transform="translate(77.04 90.78)"><tspan x="0" y="0">“</tspan></text>
  <text class="cls-18" transform="translate(74.07 90.23)"><tspan x="0" y="0">.</tspan><tspan class="cls-55" x=".68" y="0" xml:space="preserve">            </tspan><tspan class="cls-50" x="1.51" y="0"> </tspan></text>
  <text class="cls-19" transform="translate(80.21 90.55)"><tspan x="0" y="0">,</tspan></text>
  <text class="cls-24" transform="translate(81.03 90.55)"><tspan x="0" y="0" xml:space="preserve">      </tspan></text>
  <text class="cls-23" transform="translate(32.03 98.73)"><tspan class="cls-28" x="0" y="0">Retro type foundry present</tspan><tspan x="34.75" y="0">s</tspan></text>
  <text class="cls-23" transform="translate(45.26 111.13)"><tspan class="cls-33" x="0" y="0">BUY NOW</tspan><tspan class="cls-2" x="10.08" y="0">!</tspan></text>
  <g class="cls-35">
    <path class="cls-37" d="M20.51,87.78c-.64-.26-1.16-2.29-1.16-1.16,0,2.09.06.74.17-.6,0-.22.27,1.55.27.16-.08-1.81-.12,2.32-.12.44,0,1.03.38,2.03.85.85.47,1.49.85,1.48.85-.85,0-.67-.04-1.78-.12-.44,0,1.27.27-2.44.27-.17.11-.22.17-.63.17.61,0,.89-.52.27-1.16,1.16Z"/>
  </g>
  <path class="cls-46" d="M20.37,86.71c0,.12.3-.45.3,0,0-.35,0-2.51,0-1.16,0,2.24-.3.85-.3,0,0,2.27,0,1.52,0,1.16Z"/>
  <g class="cls-57">
    <path class="cls-34" d="M25.24,82.14c0-.75-.25-.05-.57.57-.31.11-.57.38-.57-.57,0-1.13.25-.28.57-.57.31,1.62.57-.65.57.57"/>
  </g>
  <g class="cls-41">
    <path class="cls-34" d="M28.08,82.14c0-1.1-.25.36-.57.57-.31-1.37-.57.39-.57-.57,0,.32.25-2.03.57-.57.31,2.75.57,1.53.57.57"/>
    <path class="cls-34" d="M26.63,82.14c0-.93-.25,1.99-.57.57-.31,1.11-.57.78-.57-.57s.25.44.57-.57c.31-.18.57-1.16.57.57"/>
  </g>
  <g class="cls-10">
    <path class="cls-34" d="M23.12,80.75c0,.93-.25-.62-.57.57-.31-.14-.57.38-.57-.57,0,.98.25.23.57-.57.31.36.57.92.57.57"/>
    <path class="cls-34" d="M22.39,79.29c0,.98-.25-.47-.57.57-.31,1.75-.57-.3-.57-.57,0-1.09.25-1.71.57-.57.31,1.02.57-.83.57.57"/>
  </g>
  <g class="cls-38">
    <path class="cls-34" d="M25.24,82.2c0,2.78-.25,2.89-.57.57-.31.8-.57,1.27-.57-.57,0,.04.25.8.57-.57.31-.45.57.05.57.57"/>
    <path class="cls-34" d="M23.78,82.2c0-.39-.25,2.63-.57.57-.31,2.28-.57,1.42-.57-.57,0,1.86.25-.77.57-.57.31,1.42.57-.91.57.57"/>
    <path class="cls-34" d="M25.97,80.75c0,1.13-.25,1.13-.57.57-.31-.27-.57-1.88-.57-.57,0,1.76.25-.11.57-.57.31,2.59.57-2.09.57.57"/>
    <path class="cls-34" d="M24.51,80.75s-.25.62-.57.57c-.31.75-.57-.32-.57-.57,0-.07.25-.48.57-.57.31-1.38.57.71.57.57"/>
    <path class="cls-34" d="M23.06,80.75c0,1.33-.25-.05-.57.57-.31-.28-.57,1.37-.57-.57,0-1.12.25-.84.57-.57.31-1.53.57-1.78.57.57"/>
    <path class="cls-34" d="M25.24,79.29c0,.85-.25.43-.57.57-.31.14-.57-.46-.57-.57,0,.54.25.78.57-.57.31,2.24.57,2.17.57.57"/>
    <path class="cls-34" d="M23.78,79.29c0-1.01-.25,2.21-.57.57-.31,1.41-.57-1.39-.57-.57,0-1.26.25-.67.57-.57.31-.91.57-.32.57.57"/>
  </g>
  <g class="cls-3">
    <path class="cls-34" d="M28.08,82.2c0,.46-.25.05-.57.57-.31.93-.57-1.56-.57-.57,0-.62.25-2.56.57-.57.31.5.57-1.44.57.57"/>
    <path class="cls-34" d="M26.63,82.2c0,.34-.25.96-.57.57-.31.26-.57-.47-.57-.57,0,.4.25-.09.57-.57.31-1.07.57-.02.57.57"/>
    <path class="cls-34" d="M28.81,80.75c0-.09-.25-.3-.57.57-.31.26-.57-.23-.57-.57,0,1.78.25-.33.57-.57.31-.77.57,2.03.57.57"/>
    <path class="cls-34" d="M27.36,80.75c0-1.87-.25,2.03-.57.57-.31-1.77-.57-2.49-.57-.57,0-.72.25-1.33.57-.57.31,1.69.57,2.78.57.57"/>
    <path class="cls-34" d="M25.9,80.75c0-.05-.25.21-.57.57-.31,1.86-.57.02-.57-.57,0-.8.25-3.22.57-.57.31-2.52.57-.28.57.57"/>
    <path class="cls-34" d="M28.08,79.29c0,1.19-.25,2.1-.57.57-.31-.03-.57-.33-.57-.57,0-1.27.25-2.64.57-.57.31.43.57-.91.57.57"/>
    <path class="cls-34" d="M26.63,79.29c0-.44-.25,2.28-.57.57-.31,2.2-.57-.37-.57-.57,0,.26.25-1.15.57-.57.31-.25.57-1.36.57.57"/>
  </g>
  <g class="cls-4">
    <path class="cls-34" d="M30.93,82.2c0-.7-.25-1.03-.57.57-.31-.84-.57-1.36-.57-.57,0-.67.25.71.57-.57.31-.59.57.29.57.57"/>
    <path class="cls-34" d="M29.48,82.2c0-.78-.25.77-.57.57-.31.25-.57.27-.57-.57,0,.08.25-1.62.57-.57.31.06.57,1.32.57.57"/>
    <path class="cls-34" d="M31.66,80.75c0-1.43-.25-.77-.57.57-.31.44-.57-.46-.57-.57,0,1.49.25-.93.57-.57.31-.62.57.66.57.57"/>
    <path class="cls-34" d="M30.2,80.75c0-1.27-.25-.38-.57.57-.31-1.02-.57,1.08-.57-.57,0,1.45.25.64.57-.57.31-.43.57-.37.57.57"/>
    <path class="cls-34" d="M28.75,80.75c0,2.06-.25.43-.57.57-.31-1.77-.57.9-.57-.57,0,1.46.25-1.28.57-.57.31-1.27.57.87.57.57"/>
    <path class="cls-34" d="M30.93,79.29c0,2.57-.25-.22-.57.57-.31.01-.57,1.86-.57-.57,0-.51.25.47.57-.57.31-1.97.57.74.57.57"/>
    <path class="cls-34" d="M29.48,79.29c0-.81-.25.69-.57.57-.31,1.55-.57.27-.57-.57,0-1.62.25-.03.57-.57.31-1.55.57,2.71.57.57"/>
  </g>
  <g class="cls-40">
    <path class="cls-34" d="M22.39,79.35c0,1.25-.25,1.6-.57.57-.31-1.7-.57.79-.57-.57,0,.28.25-1.72.57-.57.31.34.57-1.87.57.57"/>
    <path class="cls-34" d="M23.12,77.9c0,.52-.25.67-.57.57-.31.19-.57-.43-.57-.57,0-1.24.25.25.57-.57.31-1.42.57-.79.57.57"/>
    <path class="cls-34" d="M22.39,76.44c0,.74-.25,1.08-.57.57-.31-1.76-.57.69-.57-.57,0,.6.25.38.57-.57.31-1.88.57-.04.57.57"/>
  </g>
  <g class="cls-15">
    <path class="cls-34" d="M25.24,79.35c0,1.14-.25.62-.57.57-.31-.82-.57-1.23-.57-.57,0-.25.25.84.57-.57.31-1.37.57-1,.57.57"/>
    <path class="cls-34" d="M23.78,79.35c0,.61-.25-.52-.57.57-.31.63-.57,1.84-.57-.57,0,0,.25.95.57-.57.31,1.33.57-.14.57.57"/>
    <path class="cls-34" d="M25.97,77.9c0,1.27-.25-.6-.57.57-.31-.22-.57-.09-.57-.57,0,.26.25-.72.57-.57.31,1.64.57,2.51.57.57"/>
    <path class="cls-34" d="M24.51,77.9c0,.21-.25-.04-.57.57-.31.32-.57.19-.57-.57,0-.61.25-1.08.57-.57.31-1.37.57,1.08.57.57"/>
    <path class="cls-34" d="M23.06,77.9c0-2.11-.25-2.06-.57.57-.31.83-.57.89-.57-.57,0-2.09.25-2.21.57-.57.31-.49.57-.47.57.57"/>
    <path class="cls-34" d="M25.24,76.44c0,.71-.25-1.24-.57.57-.31-.25-.57,2.3-.57-.57,0-.84.25.76.57-.57.31-1.24.57,1.85.57.57"/>
    <path class="cls-34" d="M23.78,76.44c0,.28-.25,1.66-.57.57-.31-1.17-.57,0-.57-.57,0-2.19.25-1.88.57-.57.31-.51.57,1.36.57.57"/>
  </g>
  <g class="cls-16">
    <path class="cls-34" d="M28.08,79.35c0,.67-.25,3.09-.57.57-.31,1.56-.57.54-.57-.57,0-.96.25-.45.57-.57.31-1.72.57-1.31.57.57"/>
    <path class="cls-34" d="M26.63,79.35c0-1.69-.25-.91-.57.57-.31,1.6-.57,1-.57-.57,0-.87.25-2.02.57-.57.31,1.24.57,2.12.57.57"/>
    <path class="cls-34" d="M28.81,77.9c0,.33-.25.57-.57.57-.31,1.45-.57.51-.57-.57,0-1.18.25-1.02.57-.57.31,1.36.57.62.57.57"/>
    <path class="cls-34" d="M27.36,77.9c0-.31-.25,2.64-.57.57-.31,1.21-.57,1.97-.57-.57,0-1.99.25-.82.57-.57.31-1.43.57.28.57.57"/>
    <path class="cls-34" d="M25.9,77.9c0-1.11-.25,3.3-.57.57-.31-.3-.57-.56-.57-.57,0-1.25.25-2.63.57-.57.31.21.57,1.82.57.57"/>
    <path class="cls-34" d="M28.08,76.44c0,1.61-.25-.19-.57.57-.31-.93-.57,1.37-.57-.57,0-1.31.25-2.24.57-.57.31.02.57.43.57.57"/>
    <path class="cls-34" d="M26.63,76.44c0,2.3-.25-.19-.57.57-.31-.61-.57-1.05-.57-.57,0-.51.25-.05.57-.57.31.2.57,1.5.57.57"/>
  </g>
  <g class="cls-30">
    <path class="cls-34" d="M30.93,79.35c0-.06-.25.01-.57.57-.31-.49-.57,2.04-.57-.57,0,.05.25.69.57-.57.31,1.18.57.58.57.57"/>
    <path class="cls-34" d="M29.48,79.35c0,1.95-.25,1.34-.57.57-.31-1.03-.57-.79-.57-.57,0-.11.25-.64.57-.57.31.44.57.41.57.57"/>
    <path class="cls-34" d="M31.66,77.9c0,.9-.25.53-.57.57-.31.66-.57-.86-.57-.57,0-.49.25-.36.57-.57.31,2.43.57.2.57.57"/>
    <path class="cls-34" d="M30.2,77.9c0,1.09-.25,3.1-.57.57-.31.3-.57-.04-.57-.57,0-1.01.25-.17.57-.57.31-.53.57-1.67.57.57"/>
    <path class="cls-34" d="M28.75,77.9c0,.9-.25.75-.57.57-.31-2.14-.57-.26-.57-.57,0-.74.25-.87.57-.57.31.03.57,1.22.57.57"/>
    <path class="cls-34" d="M30.93,76.44c0,.13-.25,2.04-.57.57-.31,1.62-.57.15-.57-.57,0-.4.25-.42.57-.57.31-1.33.57.87.57.57"/>
    <path class="cls-34" d="M29.48,76.44s-.25,1.79-.57.57c-.31-1.17-.57-.74-.57-.57,0-1.21.25-.35.57-.57.31,1.4.57.48.57.57"/>
  </g>
  <g class="cls-43">
    <path class="cls-34" d="M22.39,76.51c0,1.16-.25.39-.57.57-.31-1.2-.57-.46-.57-.57,0,.49.25.7.57-.57.31,2.42.57.98.57.57"/>
    <path class="cls-34" d="M23.12,75.05c0,1.45-.25,3.11-.57.57-.31-1.97-.57-.66-.57-.57,0-.88.25.75.57-.57.31,1.2.57,0,.57.57"/>
  </g>
  <g class="cls-59">
    <path class="cls-34" d="M25.24,76.51c0,1.62-.25.66-.57.57-.31.48-.57,1.34-.57-.57,0,.64.25-1.61.57-.57.31-.14.57.33.57.57"/>
    <path class="cls-34" d="M23.78,76.51c0,.7-.25,1.1-.57.57-.31,1.86-.57-.03-.57-.57,0,1.28.25.81.57-.57.31,1.34.57,1.25.57.57"/>
    <path class="cls-34" d="M25.97,75.05c0,.25-.25.91-.57.57-.31-2.37-.57.62-.57-.57,0,2.2.25-.26.57-.57.31-.02.57-.97.57.57"/>
    <path class="cls-34" d="M24.51,75.05c0,.36-.25.98-.57.57-.31-.85-.57-.73-.57-.57,0-.62.25.37.57-.57.31-.27.57,1.24.57.57"/>
    <path class="cls-34" d="M23.06,75.05c0-.44-.25.59-.57.57-.31-.54-.57-.54-.57-.57,0-.88.25-2.59.57-.57.31,1.39.57-.29.57.57"/>
    <path class="cls-34" d="M25.24,73.6c0-.05-.25-.69-.57.57-.31.78-.57-.58-.57-.57,0-1.23.25-.28.57-.57.31,2.38.57.84.57.57"/>
    <path class="cls-34" d="M23.78,73.6c0-.47-.25-.28-.57.57-.31.18-.57.34-.57-.57,0,1.51.25.49.57-.57.31-1.6.57,1.13.57.57"/>
  </g>
  <g class="cls-44">
    <path class="cls-34" d="M28.08,76.51c0,.42-.25-1.01-.57.57-.31-.33-.57.91-.57-.57,0-1.89.25-.97.57-.57.31-1.79.57.24.57.57"/>
    <path class="cls-34" d="M26.63,76.51s-.25.11-.57.57c-.31-.03-.57.07-.57-.57,0,.4.25.02.57-.57.31-.56.57.46.57.57"/>
    <path class="cls-34" d="M28.81,75.05c0-.72-.25.56-.57.57-.31-1.54-.57.48-.57-.57,0,1.38.25.68.57-.57.31-2.62.57-.51.57.57"/>
    <path class="cls-34" d="M27.36,75.05c0-.3-.25.48-.57.57-.31.63-.57-.36-.57-.57s.25-.78.57-.57c.31,1.33.57,1.55.57.57"/>
    <path class="cls-34" d="M25.9,75.05c0,.54-.25,3.07-.57.57-.31.67-.57-.8-.57-.57,0,1.21.25-1.5.57-.57.31.08.57,1.41.57.57"/>
    <path class="cls-34" d="M28.08,73.6c0-2.08-.25.3-.57.57-.31-1.01-.57-1.26-.57-.57,0-.34.25-2.81.57-.57.31.36.57,1.13.57.57"/>
    <path class="cls-34" d="M26.63,73.6c0-2.09-.25,1.01-.57.57-.31-1.49-.57,1.34-.57-.57,0,1.9.25,1.16.57-.57.31.96.57,1.62.57.57"/>
  </g>
  <g class="cls-7">
    <path class="cls-34" d="M30.93,76.51c0,.21-.25,2-.57.57-.31-.82-.57-.98-.57-.57,0-2.15.25-1.14.57-.57.31-.2.57-.33.57.57"/>
    <path class="cls-34" d="M29.48,76.51c0-1.36-.25,2.11-.57.57-.31.5-.57-2.19-.57-.57,0-1.11.25-2.24.57-.57.31.44.57.76.57.57"/>
    <path class="cls-34" d="M31.66,75.05c0,.83-.25-.63-.57.57-.31-.65-.57-.3-.57-.57,0,.49.25.69.57-.57.31-.02.57.02.57.57"/>
    <path class="cls-34" d="M30.2,75.05c0-.49-.25,1.07-.57.57-.31-1.24-.57-.47-.57-.57,0-.31.25-.08.57-.57.31-.02.57.85.57.57"/>
    <path class="cls-34" d="M28.75,75.05c0-.13-.25-.81-.57.57-.31,1.93-.57.64-.57-.57,0-.97.25,1.04.57-.57.31-.09.57.68.57.57"/>
    <path class="cls-34" d="M30.93,73.6c0,.14-.25-.79-.57.57-.31.89-.57-.47-.57-.57,0,.22.25-2.22.57-.57.31,1.69.57-.52.57.57"/>
    <path class="cls-34" d="M29.48,73.6c0,.67-.25-2.16-.57.57-.31.69-.57-2.98-.57-.57,0,1.17.25-3.07.57-.57.31.39.57.5.57.57"/>
  </g>
  <g class="cls-56">
    <path class="cls-34" d="M25.24,73.66c0-.49-.25.96-.57.57-.31,2.14-.57-.27-.57-.57,0,.13.25,1,.57-.57.31.49.57-1.82.57.57"/>
  </g>
  <g class="cls-5">
    <path class="cls-34" d="M28.08,73.66c0-1.35-.25.55-.57.57-.31,1.4-.57-.29-.57-.57,0-.77.25.13.57-.57.31-.47.57,1.39.57.57"/>
    <path class="cls-34" d="M26.63,73.66c0-.52-.25,3.07-.57.57-.31-1.03-.57-1.14-.57-.57,0,.52.25,1.38.57-.57.31.48.57-1.59.57.57"/>
  </g>
  <g class="cls-9">
    <path class="cls-34" d="M73.99,82.14c0-2.19-.25,1.46-.57.57-.31.89-.57-1.27-.57-.57,0,1.52.25-.97.57-.57.31,1.07.57-.66.57.57"/>
  </g>
  <g class="cls-49">
    <path class="cls-34" d="M76.84,82.14c0,.37-.25,1.92-.57.57-.31,1.4-.57.69-.57-.57,0-1.05.25.71.57-.57.31-1.42.57-.65.57.57"/>
    <path class="cls-34" d="M75.39,82.14s-.25,1.17-.57.57c-.31-2.16-.57-1.4-.57-.57,0,.7.25-.87.57-.57.31.06.57-1.15.57.57"/>
  </g>
  <g class="cls-39">
    <path class="cls-34" d="M71.87,80.75c0-2.05-.25,2.66-.57.57-.31,2.7-.57-1.4-.57-.57,0,.59.25-1.66.57-.57.31-2.11.57,0,.57.57"/>
    <path class="cls-34" d="M71.15,79.29c0,2.55-.25.03-.57.57-.31.94-.57-2.52-.57-.57,0-1.21.25,1.58.57-.57.31-1.03.57-.6.57.57"/>
  </g>
  <g class="cls-1">
    <path class="cls-34" d="M73.99,82.2c0-1.31-.25-.27-.57.57-.31.85-.57,1.76-.57-.57,0,.19.25-.89.57-.57.31-.66.57.63.57.57"/>
    <path class="cls-34" d="M72.54,82.2c0,.97-.25,1.08-.57.57-.31-.79-.57-2.55-.57-.57,0,.75.25,2.17.57-.57.31-.41.57.69.57.57"/>
    <path class="cls-34" d="M74.72,80.75c0-.2-.25,1.63-.57.57-.31-.86-.57-.55-.57-.57,0,.21.25-.21.57-.57.31-2.23.57-1.1.57.57"/>
    <path class="cls-34" d="M73.27,80.75c0-2.06-.25.38-.57.57-.31,1.04-.57-1.56-.57-.57,0-1.47.25-.33.57-.57.31.16.57,0,.57.57"/>
    <path class="cls-34" d="M71.81,80.75c0,1.02-.25,1.29-.57.57-.31,1.43-.57.48-.57-.57,0-.54.25.98.57-.57.31,2.06.57-.09.57.57"/>
    <path class="cls-34" d="M73.99,79.29c0,.51-.25,1.14-.57.57-.31.97-.57-.33-.57-.57,0-1.77.25,1.11.57-.57.31.31.57-2.11.57.57"/>
    <path class="cls-34" d="M72.54,79.29c0-.23-.25.94-.57.57-.31-.55-.57.86-.57-.57,0,2.45.25-2.03.57-.57.31-2.39.57.64.57.57"/>
  </g>
  <g class="cls-12">
    <path class="cls-34" d="M76.84,82.2c0,2.23-.25,1-.57.57-.31-1.69-.57,1.3-.57-.57,0,1.3.25.03.57-.57.31-2.16.57-1.42.57.57"/>
    <path class="cls-34" d="M75.39,82.2c0,.5-.25,1.18-.57.57-.31-1.32-.57-.92-.57-.57,0,1.33.25-.88.57-.57.31,2.73.57.51.57.57"/>
    <path class="cls-34" d="M77.57,80.75c0,.48-.25.68-.57.57-.31.48-.57.86-.57-.57,0-1.89.25,1.27.57-.57.31-.27.57,1.6.57.57"/>
    <path class="cls-34" d="M76.11,80.75c0-.45-.25-.88-.57.57-.31-.22-.57.08-.57-.57,0-.78.25.05.57-.57.31.24.57.45.57.57"/>
    <path class="cls-34" d="M74.66,80.75c0,1.97-.25-.28-.57.57-.31-.07-.57-1.66-.57-.57,0-2.17.25.08.57-.57.31,1.96.57-.16.57.57"/>
    <path class="cls-34" d="M76.84,79.29c0-.27-.25-.36-.57.57-.31,1.27-.57.48-.57-.57,0-1.9.25.07.57-.57.31-1.24.57.02.57.57"/>
    <path class="cls-34" d="M75.39,79.29c0-.91-.25.69-.57.57-.31-1.49-.57-.65-.57-.57,0,1.2.25,1.05.57-.57.31.18.57,1.67.57.57"/>
  </g>
  <g class="cls-13">
    <path class="cls-34" d="M79.69,82.2c0,.34-.25-.35-.57.57-.31.15-.57.34-.57-.57,0,.09.25.01.57-.57.31.67.57-1.3.57.57"/>
    <path class="cls-34" d="M78.23,82.2c0-.12-.25-2.16-.57.57-.31-1.07-.57.67-.57-.57,0,1.34.25-2.26.57-.57.31-1.42.57.18.57.57"/>
    <path class="cls-34" d="M80.41,80.75c0,.95-.25-1.64-.57.57-.31-1.18-.57-1.17-.57-.57,0,.25.25.73.57-.57.31-.31.57,1.19.57.57"/>
    <path class="cls-34" d="M78.96,80.75c0,.1-.25-.49-.57.57-.31-.51-.57,2.48-.57-.57,0,1.44.25.61.57-.57.31-.12.57.37.57.57"/>
    <path class="cls-34" d="M77.5,80.75c0,.85-.25,1.29-.57.57-.31-2.17-.57-.48-.57-.57,0-1.44.25-.35.57-.57.31.81.57.25.57.57"/>
    <path class="cls-34" d="M79.69,79.29c0,.75-.25.55-.57.57-.31-2.31-.57,1.75-.57-.57,0,.59.25-.69.57-.57.31-1.35.57-1.05.57.57"/>
    <path class="cls-34" d="M78.23,79.29c0-.45-.25.11-.57.57-.31-.09-.57-.01-.57-.57,0-2.65.25-1.35.57-.57.31-.07.57.28.57.57"/>
  </g>
  <g class="cls-60">
    <path class="cls-34" d="M71.15,79.35c0,.84-.25,2.82-.57.57-.31.84-.57-1.53-.57-.57,0-.39.25-1.03.57-.57.31-.8.57.26.57.57"/>
    <path class="cls-34" d="M71.87,77.9c0-.28-.25-.39-.57.57-.31,0-.57-.37-.57-.57,0-1.19.25.06.57-.57.31-1.07.57-1.67.57.57"/>
    <path class="cls-34" d="M71.15,76.44c0,.23-.25.72-.57.57-.31.39-.57-.57-.57-.57,0-1.35.25.48.57-.57.31,2.31.57-1.42.57.57"/>
  </g>
  <g class="cls-26">
    <path class="cls-34" d="M73.99,79.35c0-2.22-.25,1.08-.57.57-.31-1.51-.57-2.25-.57-.57,0-.58.25,1.03.57-.57.31-.82.57-.55.57.57"/>
    <path class="cls-34" d="M72.54,79.35c0,1.68-.25.62-.57.57-.31.55-.57.75-.57-.57,0,1.1.25.03.57-.57.31-.95.57.17.57.57"/>
    <path class="cls-34" d="M74.72,77.9c0,.91-.25-.12-.57.57-.31.42-.57-1.03-.57-.57,0-2.19.25-3.13.57-.57.31-.81.57,1.28.57.57"/>
    <path class="cls-34" d="M73.27,77.9c0-1.27-.25,1.1-.57.57-.31,1.66-.57.59-.57-.57,0-.84.25-.3.57-.57.31,2.07.57-.96.57.57"/>
    <path class="cls-34" d="M71.81,77.9c0,1.5-.25.78-.57.57-.31-.06-.57-2.48-.57-.57,0-.68.25,1.71.57-.57.31-.96.57.74.57.57"/>
    <path class="cls-34" d="M73.99,76.44c0,.63-.25.02-.57.57-.31-.58-.57-.04-.57-.57,0-2.37.25-.89.57-.57.31,1,.57.53.57.57"/>
    <path class="cls-34" d="M72.54,76.44c0-1.08-.25.64-.57.57-.31-.62-.57-.87-.57-.57,0-.64.25-3.15.57-.57.31-.94.57-.7.57.57"/>
  </g>
  <g class="cls-42">
    <path class="cls-34" d="M76.84,79.35c0,2.78-.25.29-.57.57-.31,1.12-.57-2.92-.57-.57,0,.23.25.06.57-.57.31-.31.57.88.57.57"/>
    <path class="cls-34" d="M75.39,79.35c0,1.69-.25,2.34-.57.57-.31,1.29-.57-2.18-.57-.57,0,.26.25-1.87.57-.57.31,2.28.57.73.57.57"/>
    <path class="cls-34" d="M77.57,77.9c0,.82-.25-1.89-.57.57-.31.55-.57-2.93-.57-.57,0-.32.25-.84.57-.57.31-.97.57-1.17.57.57"/>
    <path class="cls-34" d="M76.11,77.9c0-.29-.25,1.21-.57.57-.31.75-.57-.46-.57-.57,0-1.56.25-.77.57-.57.31.91.57-.34.57.57"/>
    <path class="cls-34" d="M74.66,77.9c0-1.11-.25,1.44-.57.57-.31-1.31-.57-.03-.57-.57,0-.18.25-1.38.57-.57.31,2.64.57.34.57.57"/>
    <path class="cls-34" d="M76.84,76.44c0,.33-.25.03-.57.57-.31,1.63-.57-2.3-.57-.57,0-1.08.25.04.57-.57.31.79.57.84.57.57"/>
    <path class="cls-34" d="M75.39,76.44c0,1.62-.25-.35-.57.57-.31-1.51-.57,1.51-.57-.57,0-.35.25-.42.57-.57.31-.52.57.37.57.57"/>
  </g>
  <g class="cls-27">
    <path class="cls-34" d="M79.69,79.35c0-1.44-.25.54-.57.57-.31.21-.57-.94-.57-.57,0,1.62.25.16.57-.57.31,1.62.57-2.27.57.57"/>
    <path class="cls-34" d="M78.23,79.35c0-.71-.25.97-.57.57-.31-.77-.57,1.25-.57-.57,0-1.23.25.36.57-.57.31-.48.57-.92.57.57"/>
    <path class="cls-34" d="M80.41,77.9c0-1.31-.25.97-.57.57-.31-.24-.57-1.14-.57-.57,0-.57.25-2.39.57-.57.31-.32.57-.15.57.57"/>
    <path class="cls-34" d="M78.96,77.9c0,2.17-.25.64-.57.57-.31,1.83-.57.03-.57-.57,0,.25.25-.6.57-.57.31-.14.57,1.64.57.57"/>
    <path class="cls-34" d="M77.5,77.9c0,1.59-.25.56-.57.57-.31-.84-.57-1.47-.57-.57,0,.45.25-.17.57-.57.31,1.2.57,1.41.57.57"/>
    <path class="cls-34" d="M79.69,76.44c0-.15-.25.21-.57.57-.31-.38-.57-.4-.57-.57,0-.21.25,1.29.57-.57.31,1.66.57,1.44.57.57"/>
    <path class="cls-34" d="M78.23,76.44c0,2.91-.25,1.19-.57.57-.31,1.87-.57,2.23-.57-.57,0-1.19.25,1.11.57-.57.31-1.51.57-1.46.57.57"/>
  </g>
  <g class="cls-32">
    <path class="cls-34" d="M71.15,76.51c0,1.38-.25.45-.57.57-.31,1.26-.57-.5-.57-.57,0,1.66.25-1.47.57-.57.31-.2.57-1.16.57.57"/>
    <path class="cls-34" d="M71.87,75.05c0-.5-.25.55-.57.57-.31-.1-.57-.29-.57-.57,0,1.62.25-.47.57-.57.31.8.57-.3.57.57"/>
  </g>
  <g class="cls-58">
    <path class="cls-34" d="M73.99,76.51c0-1.14-.25.71-.57.57-.31,1.35-.57-1.16-.57-.57,0,.44.25.48.57-.57.31,1.26.57-.03.57.57"/>
    <path class="cls-34" d="M72.54,76.51c0,.85-.25.61-.57.57-.31,1.6-.57,0-.57-.57,0-1.1.25.64.57-.57.31,1.92.57-1.49.57.57"/>
    <path class="cls-34" d="M74.72,75.05c0,2.17-.25-.3-.57.57-.31,2.12-.57-1.97-.57-.57,0,.28.25-2.81.57-.57.31.13.57-.53.57.57"/>
    <path class="cls-34" d="M73.27,75.05c0-.36-.25-2.33-.57.57-.31,1.24-.57-.7-.57-.57,0,.75.25.4.57-.57.31.82.57-1.49.57.57"/>
    <path class="cls-34" d="M71.81,75.05c0-.16-.25-.13-.57.57-.31.67-.57-.85-.57-.57,0,.11.25.39.57-.57.31.87.57.29.57.57"/>
    <path class="cls-34" d="M73.99,73.6c0,1.91-.25-.14-.57.57-.31-2.21-.57,1.22-.57-.57,0,.36.25.37.57-.57.31,2.77.57,1.16.57.57"/>
    <path class="cls-34" d="M72.54,73.6c0-.68-.25,1.93-.57.57-.31.8-.57,1.1-.57-.57,0,1.03.25-1.16.57-.57.31-1.04.57,1.11.57.57"/>
  </g>
  <g class="cls-48">
    <path class="cls-34" d="M76.84,76.51c0-.17-.25-.05-.57.57-.31.48-.57,1.4-.57-.57,0,.21.25.49.57-.57.31-2.63.57,2.62.57.57"/>
    <path class="cls-34" d="M75.39,76.51c0,1.19-.25,2.08-.57.57-.31-1.33-.57,1.03-.57-.57,0-.67.25.14.57-.57.31.5.57-.7.57.57"/>
    <path class="cls-34" d="M77.57,75.05c0,1.09-.25.38-.57.57-.31.49-.57,1.75-.57-.57,0,2.58.25.9.57-.57.31-.25.57.3.57.57"/>
    <path class="cls-34" d="M76.11,75.05c0,.53-.25,2.04-.57.57-.31-1.2-.57.41-.57-.57,0-1.51.25.16.57-.57.31-.48.57.44.57.57"/>
    <path class="cls-34" d="M74.66,75.05c0,2.19-.25.65-.57.57-.31-.21-.57-1.38-.57-.57,0-2.27.25-1.47.57-.57.31-1.09.57,1.3.57.57"/>
    <path class="cls-34" d="M76.84,73.6c0-.21-.25-.07-.57.57-.31,2.62-.57-.91-.57-.57,0-.05.25.12.57-.57.31-.51.57-1.37.57.57"/>
    <path class="cls-34" d="M75.39,73.6c0,.93-.25,2.02-.57.57-.31-1.47-.57-1.01-.57-.57,0-1.02.25.22.57-.57.31,1.39.57-1.18.57.57"/>
  </g>
  <g class="cls-6">
    <path class="cls-34" d="M79.69,76.51c0-.1-.25-1.15-.57.57-.31.29-.57-.87-.57-.57,0,.2.25-1.89.57-.57.31.42.57-1.2.57.57"/>
    <path class="cls-34" d="M78.23,76.51c0-.68-.25-.58-.57.57-.31-1.01-.57-1.67-.57-.57,0-1.2.25.56.57-.57.31.16.57,1.34.57.57"/>
    <path class="cls-34" d="M80.41,75.05c0,1.72-.25,1.06-.57.57-.31.78-.57-.19-.57-.57,0,1.99.25-1.51.57-.57.31-2.02.57-.3.57.57"/>
    <path class="cls-34" d="M78.96,75.05c0-.96-.25-.9-.57.57-.31,1.95-.57-2.25-.57-.57,0-.15.25-.33.57-.57.31.48.57-.07.57.57"/>
    <path class="cls-34" d="M77.5,75.05c0-.78-.25-.22-.57.57-.31.12-.57.37-.57-.57,0,1.96.25-.22.57-.57.31.37.57,1.5.57.57"/>
    <path class="cls-34" d="M79.69,73.6c0,.31-.25.35-.57.57-.31-.47-.57-.46-.57-.57,0,1.78.25-.15.57-.57.31,1.53.57.82.57.57"/>
    <path class="cls-34" d="M78.23,73.6c0-2.38-.25,2.44-.57.57-.31-.58-.57.09-.57-.57,0-.07.25-1.25.57-.57.31-.88.57,2.39.57.57"/>
  </g>
  <g class="cls-51">
    <path class="cls-34" d="M73.99,73.66c0,.48-.25.13-.57.57-.31-1.31-.57.6-.57-.57,0-.88.25-2.48.57-.57.31-2.49.57-.53.57.57"/>
  </g>
  <g class="cls-8">
    <path class="cls-34" d="M76.84,73.66c0,1.07-.25-.87-.57.57-.31.9-.57-.96-.57-.57,0-1.57.25-2.41.57-.57.31-2.03.57.06.57.57"/>
    <path class="cls-34" d="M75.39,73.66c0-.74-.25-.37-.57.57-.31-.86-.57,2.5-.57-.57,0,2.12.25.07.57-.57.31-1.32.57-.45.57.57"/>
  </g>
</svg>