<?xml version="1.0" encoding="UTF-8"?>
<svg id="Layer_1" data-name="Layer 1" xmlns="http://www.w3.org/2000/svg" viewBox="0 0 99.28 143.55">
  <defs>
    <style>
      .cls-1 {
        fill: #6a0f34;
      }

      .cls-2 {
        fill: #b22e3f;
      }
    </style>
  </defs>
  <path class="cls-2" d="M77.63,110.16c-1.53.75-3.68.28-6.21.02-.69-.21-1.82-.18-1.38-.41.99-.67,2.2-2.29,3.24-2.38,1.02.05,2.3.45,4.34-.01,0,1.08-.02-3.58-.02-2.93-2.55-.69-8.36.62-11.77.03-.69.28-1.82.11-1.38-.41.99-.16,2.2-1.95,3.24-2.38,1.2.21,6.38.24,9.9-.02,0-.37-.02-2.46-.02-2.99-.07.49-.13.05-.2.05-.45-.76-3.66-1.28-7.18.03-3.53.74-7.37.48-9.1.02-.58-.34-1.52.56-1.15-.41.82-.76,1.83-2,2.69-2.38.56-.2,3.55-.56,6.76-.02,3.2.9,6.62.85,8.04-.01,0,.19.13.37.13.02,0-.54-.01-1.77-.03-4.25-.02-2.27-.04-6.21-.07-10.97-.01-2.31-.03-4.8-.05-6.98-.02-2.18-.03-4.91-.05-7.16-.02-3.01-.03-5.35-.05-7.35-.02-2.82-.03-5.08-.05-6.78-.03-3.84-.06-7.95-.07-10.88-.02-2.5-.03-4.65-.03-4.35-.01-1.92-1.82-3.86-4.03-3.98,0-.36-9.18-.22-18.37.12-9.18.24-18.37.02-18.37.12-1.74,1.97-3.48,3.3-5.22,5.22-2.28,2.35-4.57,4.15-6.85,6.85-1.95,2.03-3.89,4.07-5.84,5.84,0-.23.01,1.57.03,4.57.02,2.68.05,6.79.08,11.42.02,2.32.03,4.23.05,7.21.02,2.48.03,5.04.05,7.64.02,2.12.03,5.3.05,7.54.02,2.52.03,4.99.05,7.31.03,4.5.06,8.78.08,11.4.02,2.81.03,4.49.03,4.58.01,2,1.82,4.3,4.03,3.98,0,0,1.41.13,3.76-.11,2.35-.47,5.64-.47,9.4.02,3.76-.18,7.99.14,12.22-.06,4.23-.68,8.46-.07,12.22-.11,3.76.08,7.05-.2,9.4.11,2.35.45,3.76.63,3.76-.2,2.21.22,3.99-2.14,3.98-4.03,0-.03-.02-3.14-.02-2.51Z"/>
  <path class="cls-1" d="M29.73,40.14c0-.28-2.82,2.87-5.63,5.63-2.82,2.76-5.63,5.8-5.63,5.63,0,.08,3.46-.16,6.92-.05,3.46.06,6.92.37,6.92-.05,2.29.08,4.13-2.01,4.11-4.17,0,.32-.02-3.64-.05-6.8-.02-3.57-.05-6.42-.05-6.8-2.2,1.61-4.4,4.63-6.6,6.6Z"/>
</svg>