<?xml version="1.0" encoding="UTF-8"?>
<svg id="Layer_1" data-name="Layer 1" xmlns="http://www.w3.org/2000/svg" viewBox="0 0 99.28 143.55">
  <defs>
    <style>
      .cls-1 {
        fill: none;
        stroke: #898989;
        stroke-miterlimit: 10;
      }
    </style>
  </defs>
  <path class="cls-1" d="M76.04,83.3c0,.71-4.94-8.47-10.19-21.71-2.63-9.25-5.33-14.78-7.53-21.02-2.2-5.84-3.9-12.44-4.52-23.98,0,3.47-2.82-3.26-2.82,0v53.48c2.7-1.81,4.71,4.75,4.71,5.99,0,4.79-2.77,6.48-6.18,6.18-3.41-3.26-6.18-5.34-6.18-6.18,0,.92,2.01-9.14,4.71-5.99,0,1.41,0-3.55,0-8.11V16.59c0-.93-2.82,2.07-2.82,0-.62,6.57-2.32,15.52-4.52,23.55-2.2,5.87-4.9,18.82-7.53,21.45-5.25,9.95-10.19,21.16-10.19,21.71,3.16,1.8,7.42,14.02,10.68,15.67,3.27,6.53,5.56,10.81,4.79,16.09,0,3.4-1.24-.85-1.24,0,0,.31,10.82-1.29,10.82,0,0,2.12,2.94,1.54,2.94,0,0-4.41,3.88-1.46,3.88,0,0-1.43,6.79,2.71,6.79.44-.77-8.4,1.24-9.89,4.24-16.31,3-5.48,6.98-10.48,10.14-15.9Z"/>
</svg>