<?xml version="1.0" encoding="UTF-8"?>
<svg id="Layer_1" data-name="Layer 1" xmlns="http://www.w3.org/2000/svg" viewBox="0 0 95.29 137.65">
  <defs>
    <style>
      .cls-1 {
        fill: none;
        stroke: #898989;
        stroke-miterlimit: 10;
      }
    </style>
  </defs>
  <path class="cls-1" d="M64.26,118.95c0,.63-8.3.1-16.61,0-8.3-.28-16.61-1.17-16.61,0-5.34,3.58-9.67-2.91-9.67-9.67,0,1.71,0-9.36,0-21.68V25.67c0-4.17,4.33-10.25,9.67-9.67,0,1.31,8.3-.51,16.61,0,8.3-2.37,16.61-.63,16.61,0,5.34,1.48,9.67,3.9,9.67,9.67v61.93c0,11.14,0,24.75,0,21.68,0,2.66-4.33,5.37-9.67,9.67Z"/>
  <path class="cls-1" d="M15.89,116.06V18.89c0-2.67,4.08-10.95,9.11-9.11,0,1.78,11.33-2.89,22.65,0,11.33-1.14,22.65,5.63,22.65,0,5.03-.14,9.11,5.16,9.11,9.11v71.98c0,9,0,18.88,0,17.98v7.21c0,7.69-4.08,10.98-9.11,9.11,0-.14-11.33-1.96-22.65,0-11.33-1.42-22.65-1.47-22.65,0-5.03-.05-9.11-2.5-9.11-9.11Z"/>
  <path class="cls-1" d="M64.26,118.95c0,1.6-8.3-3.68-16.61,0-8.3-.3-16.61-4.49-16.61,0-5.34-.84-9.67-2.89-9.67-9.67V25.67c0-8.15,4.33-8.78,9.67-9.67,0-2.19,8.3,3.96,16.61,0,8.3,1.94,16.61-.74,16.61,0,5.34-1.31,9.67,2.1,9.67,9.67v83.61c0,3.08-4.33,8.46-9.67,9.67Z"/>
</svg>