<?xml version="1.0" encoding="UTF-8"?>
<svg id="Layer_1" data-name="Layer 1" xmlns="http://www.w3.org/2000/svg" viewBox="0 0 99.28 143.55">
  <defs>
    <style>
      .cls-1 {
        fill: #fff;
      }

      .cls-2 {
        fill: #3f793a;
      }
    </style>
  </defs>
  <g id="Layer_1-2" data-name="Layer 1-2">
    <path class="cls-2" d="M20.45,42.9c1.65-.28,2.57-.76,5.02-.98,1.9-.15,3.98-.03,5.9.24,2.87.41,5,1.23,7.72,1.5,4.95.54,10.47-1.14,15.74-.86,3.66.22,7.18.76,10.89.43,3.01-.18,6.22-.88,9.14-1.52,2.23-.68,4.06.53,5.68,1.93,1.59,1.3,3.89,2.65,5.2,4.29,2.92,3.32,1.8,6.9,2,11.17,0,6.3,0,12.95,0,19.25,0,11.42,0,23.15,0,34.51.03,1.98-.01,3.54-.62,5.37-2.25,7.83-11.51,6.2-18.05,5.9-2.83-.13-4.91.22-7.5.39-3.54.24-7.53-.49-11.22-.63-4.83-.38-9.37-.62-14.06-.03-3.58.29-7.65-.56-11.3-.74-2.33-.14-3.31.47-5.03.82-1.92.38-4.09-.11-5.38-1.69-1.82-2.26-2.21-5.67-2.21-8.49-.03-2.67.01-5.46,0-8.98,0-7.62,0-15.23,0-22.72,0-7.41,0-14.88,0-22.33-.03-7.02-.93-15.84,8-16.81l.09-.02Z"/>
    <path class="cls-1" d="M42.56,59.64c1.12-.56,2.41-.18,4.42-.14,1.39.11,2.91-.05,4.24.21,2.11.45,1.12,3.85,1.37,5.41,0,.61.2,1.56.56,1.48.27,0,.65-.45,1.09-1.17,1.24-1.91,2.3-4.44,4.13-5.93,2.59-2.06,8.89-2.86,11.52-.69.91,1.14-.38,2.5-1.15,3.42-2.02,2.35-4.72,5.6-7.9,6.6-1.61.56-3.49.55-5.02,1.26-3.4,1.74-2.51,7.12-2.78,10.78-.02,5.2,0,10.31,0,15.53-.07,1.66.19,5.11-.21,6.13-.26.53-.96.37-2.29.12-1.17-.22-2.45-.38-3.66-.36-2.24-.16-4.68,1.19-4.89-1.13-.19-5.78-.01-11.9-.07-17.9,0-7.3,0-15.17,0-22.49-.06-.52.17-.84.58-1.1l.06-.03Z"/>
  </g>
</svg>