<?xml version="1.0" encoding="UTF-8"?>
<svg id="Layer_1" data-name="Layer 1" xmlns="http://www.w3.org/2000/svg" viewBox="0 0 99.28 143.55">
  <defs>
    <style>
      .cls-1 {
        fill: #fff;
      }

      .cls-2 {
        fill: #171717;
      }
    </style>
  </defs>
  <path class="cls-2" d="M16.46,19.16c0,.42,0-1.52,0-1.85,0-.81,4.17,1.08,10.43,0,3.13-.04,6.78.3,10.69.2,3.91.46,8.09-.07,12.26-.2,4.17-.98,8.35-.53,12.26.08,3.91.17,7.56-.87,10.69-.08,6.26-.11,10.43-1.02,10.43,0,0-.51,0,3.09,0,1.85-.4.86-.61-.85-.63.34-.65-.17-1.24.28-1.79-.25-.77-.74-1.56.45-2.34.09-.18.04-.41-.94-.69-.02-.12.68-.37-.48-.73,0-.3-.52-.56-.32-.77-.07-.45,1.37-.81.04-1.08.25-.68-.57-1.61,0-2.33,0-.91-.5-1.76.05-2.55,0-.52.12-.97-.21-1.35,0-.23.62-.46-.92-.69,0-.29-.44-.64,1.03-1.05,0-.41-.27-1-.58-1.44,0-.4-.48-.89-1.49-1.47-.25-.5-.03-1.13.58-1.89.15-.43-.41-.94-1.81-1.54.1-.44.17-.83-.91-1.17,0-.26.27-.52.43-.79-.02-.35-.06-.75-.79-1.19.02-.39,1.34-.8.03-1.2,0-.54-.65-1.47-.94-2.02,0-.7-.19-1.38.42-2.03-.26-.77-.1-1.59,1.75-2.45.03-.26,1.39-.53-.48-.82.06-.29-.63-.56-.17-.82-.08-.48.79-.88-1.88-1.22.25-.56.51-1.44-.2-2.03,0-1,.05-1.94.19-2.82,0-.44-.86-.84-.99-1.19,0-.26-.18-.53-1.47-.79,0-.29-.86-.68.74-1.18,0-.38-1.65-.78.12-1.16,0-.5,1.39-1.41-1-1.9,0-.76.76-1.5.66-2.22-.24-.54.07-1.14-.95-1.79.09,0-.72-.35-.23-.35.15-.23-1.92-.46-.22-.69,0-.23.16-.57.49-1.02,0-.37-.06-.93-1.79-1.32,0-.62-.5-1.51-.68-2.2,0-.93-2.13-1.79,0-2.58,0-.52.73-.95-1.17-1.3,0-.23.32-.49.83-.73,0-.34-1.85-.71-.39-1.13,0-.34,1.01-.81.36-1.2-.02-.15.77-.3.72-.36-.23-.46.41-.91-.1-1.37.01-.17,1.06-1.21.21-1.39-.1Z"/>
  <path class="cls-1" d="M83.24,19.16c0,.08,0,.79,0,.17,0,.34-.18.63-.18.35.23-.16.21.58-.64.54-.18.02-.4-.58-.6-.27-1.19.14-1.94-.97-2.89.72-.24-.09-.53.12-.86-.16-1.08,1.16-1.3.31-.66.31-.45.18-.45-1.17,0,1.11-.2-.32-.45-.29-.75.64-.08-.23-.23-.66-.31,0-.51-.93-1.03-.73-1.57-.9-.27-1.33-.53.09-.79-.41-.7-1.43-3.1-1.78-4.33-.59-.24,1.49-1,.22-1.26-.42-.7-.95-.78-.72-.25.58-.45.86-.45-.37,0,1.11-.2.86-.45,1.45-.75.64-.08.83-.23-.49-.31,0-.72,1.35-1.4-.83-2.05-1.31,0,.45-.23-.71-.23.07-.76-.47-3.08-2.96-4.41-.66-.13,1.39-.83-1.61-1.1-.24-1.05-1.22-.9-.52-.42.36-.12-.16-.27-.09-.47.53.79.37.37,1.3-.27,1.24-.15.08-.33,1.11-.48,0-.05-.61-.1-.04-.15.07-.08.11-1.19-2.19-1.4-.95-.27-1.58-.54-1.13-.8-.42-.71-.66-3.1-2.12-4.34-.6-.25.58-.53-.37-.84-.16-1.09.63-1.31-1.42-.66.32-.45,1.4-.45-.1,0,1.11-.2.25-.45.59-.75.64-.08-.71-.23-.09-.31,0-.51-.26-1.03.97-1.57-.9-.27-1.09-.53-1.15-.79-.41-.7-2.49-3.1-1.81-4.33-.59-.25-1.78-.53-1.92-.85-.16-1.08-1.18-1.3-.4-.66.32-.45.27-.45.62,0,1.11-.2.32-.45.13-.75.64-.08.24-.23-.56-.31,0-.51,1.18-1.03,1.11-1.57-.9-.27.97-.53-.96-.79-.41-.11,1.06-.48-2.07-.92-1.09-1.41-.4-2.47-.43-3.69.58-.18-.03-.46-.96-.83-.32-.85-.11-.99.49-.41.4-.45-1.3-.45.36,0,1.11-.2-.58-.45,1.09-.75.64-.08.83-.23,1.01-.31,0-.51-.07-1.03-.42-1.57-.9-.27-1.57-.53.24-.79-.41-.7-1.96-3.1-1.94-4.33-.59-.24-.38-.99-.53-1.27-.42-.69-.67-.77-.49-.24.58-.45.29-.45-2.42-.02,1.12-.19-.83-.44-1.36-.73.62-.08-.24-.23,1.44-.31,0,0-1.74-.16-.87-.16.06-.67-2.02-1.31-.59-1.92-1.4-.22-.7-.36.06-.43-.41,0-1.13-.27.61-.81-.66-.39.94-.69-.08-.89-.48,0-.75,0-1.46,0-.51,0-.11,4.17-.62,10.43,0,3.13,1.05,6.78.63,10.69-.13,3.91-.09,8.09-.48,12.26.13,4.17.04,8.35.38,12.26,0,3.91-.38,7.56.52,10.69,0,6.26,1.07,10.43-.78,10.43,0Z"/>
  <path class="cls-2" d="M20.68,22.57c-.1-.08-.17-.71-.29.16-.16-.56-.3-.42-.41-.17,0-2.4-.99.93-.99-.31-.11,2.45-.66.82-.96.07-1.12.11-1.86-.2-.6-.83.39,1.69.34,1.13-.14-.9-.53.3-.81.17-.83-.59,0-.52,0,.68,0-.34.74-1.44,1.38-.44,1.94.97.2-.18.44.71.57-.37.13-.87.14-.69-.12-.45-.11-.39-.21.15-.46.55-.16-.53-.67-1.03-.58-.95.13-1.36.87-.26.75.16.21-.33.46-.01.73-.21,0,1.19-.05.78.01.39.04.99.13,1.76.23.12.13,1.74.07-.31.23-.5-.09.13.84-.25.9.04-.14-.22.02,1.8-.14.82-.08.43-.34-.6-.36.06-.02.81.25,1.28.29.32.01-1.74-.06.1-.36.9-.6-.3-.58-1.08-1.01-.73-.22-.6-.45-1.21-.61.15.58-1.06,2.2,2.32,2.21,1.62Z"/>
  <path class="cls-1" d="M19.98,22.56c0-.88-3.52-1.03-3.52-.03,0,0,0-1.07,0-.34.1.31.12-.47,0-.51,0-.54,0-.18,0-.51.06.39.35-1.14.42-.16.04-.19-.28-.55-.42,0,0,.19,0-.55,0-1.01.54-1.01,1.35,1.88,1.57,1.1.13,1.35-.63,1.07-1.04.94.03.5.32.78.52.31.15-.59.37-.18.57-.24.25,1.39.38.7.66.07-.33-.2-.64-1.33-.27-.92.66.51,1.22.56,1.51,1.31Z"/>
  <path class="cls-2" d="M16.46,21.18c0-.1,0,.59,0-.17.11.12.25-.44.42-.35.16,1.5.41-.25.41.35,0-.91-.25,2.11-.4.34-.14.48-.3-1.51-.43-.17Z"/>
  <path class="cls-2" d="M16.46,117.31c0,.55,0-.69,0-.17.11,1.05.25-.37.42-.35.16.3.41-.52.41.35,0,.61-.25.22-.4.34-.14-.62-.3.5-.43-.17Z"/>
  <path class="cls-2" d="M16.46,22.19c0,.07,0-.14,0-.51.1-.35.27.01.34.09.09-.79-.2.61-.34.42Z"/>
  <g>
    <path class="cls-2" d="M39.18,22.57c-.09-.54-.17-.79-.29.16-.16-.53-.3,1.52-.41-.17-.52-.6-.96.43-1.34-.11-.39-1.71-.76-1.68-1.1,0-1.14.71-1.08.86.19-1.24-.79-1.57-2.31-2.89-3.29-.19.22-.91.19.44-.08.93-.7-1.57-1.39-.37-2.09.6-.07.99-.16-.03-.26.15-.11-.53-.18-.39-.26-.14-.05-.7.23-1.56.53-.63-.38-1.14-.47-1.35-.47-.74,0,.16.13,1.38.49-.43-.27,1.08-.58-1.54-.52-.5,0,.17.17-.37.17-.63.05.57.39,1.01.48-.04.05-.76.09-.96.27.42.17-.1.05-1.62.32-.64.1-.58.32-.13.23.31-.07.68-.28.8-.24.42.07,1.56.39-.38.41-.07.01-1.43.02-.08.11-.5.25.06.55.89.82.23-.39,1.4-.69.83-.51.74.62-.66,1.12-1.67,1.64-1.19.38-.93.68,1.68.21.33,1.04-.64,1.99,1.25,2.74,1.02.27.48.41-1.22.59-.39.12-1.08.14,1.73-.13-.45-.11,1.7-.2.23-.46.55-.16-.34-.67-.3-.59-.95.07.98.49-1.89.75.16.22-.34.59-.06.71-.15-.16.44.02.81.23.48.14-2.5.11.09.15-.45.3-1.79.62.42,1.02-.12-.12.42-.1.18-.07.9-.23.09-.36.66-.51.09.12-.94.29-.35.34.31.02.36-.06.56-.36.9-.6-1.37-.58-1.52-1.01-.73-.22-.93-.45-.95-.61.15.58.31,2.2,1.13,2.21,1.62Z"/>
    <path class="cls-1" d="M32.1,20.76c-.15-1.81-.32-.26-.53.48-.15-.03-.14-.59-.15-.36-.01-2.33.22-.3.68-.13Z"/>
  </g>
  <g>
    <path class="cls-2" d="M48.43,22.57c-.1-.59-.17.44-.29.16-.16-.92-.3-.91-.41-.17,0,1.3-1,.83-1-.31-.19-.67-.65-.65-.98.08-.6-.34-1.62.71-1.08-.58,2.32-.92-1.71-2.08-2.47-.73.22.1.19,1.64-.08.93-.7.46-1.39-.94-2.09.6-.07.98-.16-1.65-.26.15-.11-.45-.18-.56-.26-.14-.05-.37.23-.04.53-.63-.38.08-.47.35-.47-.74,0,.81.13,1.37.49-.43-.27-1.27-.58-.98-.52-.5,0,.44.17-.72.17-.63.05.65.39.73.48-.04.05-.18.09-1.51.27.42.16-.06.05.4.32-.65.1-1.17.32-.27.23.31-.07,1.38-.28-.87-.24.42.05-.13.39.24.41-.07,0-.72.03.57.11-.51.25-.54.55.46.82.23-.39.63-.69.06-.51.74.62.15,1.12-.51,1.64-1.19.38.66.68-.23.21.33,1.04-1.34,1.99.31,2.74,1.02.27,0,.41-1.17.59-.39.12.9.14-.9-.13-.45-.11-.32-.2.46-.46.55-.16-1.57-.67-.93-.59-.95.07-1.53.49.52.75.17.21.29.59-.29.71-.16-.16.11.02.8.23.48.14-1.04.11-.04.15-.45.3-.51.62-.56,1.02-.12-.12,1.57-.1-.21-.07.9-.23,1.67-.36-.05-.51.09.12-1.29.29.24.34.31.02-1.17-.06.82-.36.9-.6-1.23-.58-1.42-1.01-.73-.22.36-.45.6-.61.15.58-.53,2.2,1.31,2.21,1.62Z"/>
    <path class="cls-1" d="M41.35,20.76c-.15,1.24-.32-1.65-.53.48-.15-1.88-.14-.3-.14-.34-.02,0,.22-1.04.68-.14Z"/>
  </g>
  <g>
    <path class="cls-2" d="M57.68,22.56c-.09,1.17-.17.76-.29.17-.16-.27-.3-.69-.41-.17,0,1.29-1,.25-1-.31-.19.95-.65,1.78-.98.08-.6.59-1.62-1.45-1.08-.58,2.32-.53-1.71-2.69-2.48-.73.22-.17.19-.68-.08.93-.7,1.33-1.39-.82-2.09.6-.07-.12-.16.03-.26.15-.11-.48-.18-.78-.26-.14-.05.5.23-2.57.53-.63-.38-1.23-.47-.98-.47-.74,0,1.53.13-.44.49-.43-.27-.81-.58.12-.52-.5,0-2.48.17-.74.17-.63.05.1.39-.38.48-.04.05.86.09,1.15.27.42.17.62.05-1.23.32-.65.1,0,.32,1.73.23.31-.07-.87-.28-.48-.24.42.06-1.15.39-1.34.41-.07.01-.6.02.01.11-.51.25.91.55.65.82.23-.39.61-.69-.53-.51.74.62.29,1.12-.59,1.64-1.19.38.54.68,1.39.21.33,1.04-.56,1.99-.42,2.74,1.02.27-2.39.41.15.59-.39.12-.9.14-.97-.13-.45-.11.5-.2.12-.46.55-.16-.16-.67-.08-.59-.95.07.16.49-.91.75.16.21-.37.59-.13.71-.15-.16.05.02.64.23.48.13.87.12.74.15-.45.3.86.62.24,1.02-.12-.12-.48-.1,1.07-.07.9-.23-.56-.36,1.03-.51.09.12-.98.29.23.34.31.02,1.1-.06,1.82-.36.9-.6.95-.58-2.05-1.01-.73-.22-.31-.45.21-.61.15.6.56,2.17.74,2.21,1.61Z"/>
    <path class="cls-1" d="M50.6,20.76c-.15,1.33-.32,1.39-.53.48-.16.17-.14.16-.15-.34-.02-.75.22-.67.68-.14Z"/>
  </g>
  <g>
    <path class="cls-2" d="M76.35,22.57c-.09.13-.17.07-.29.16-.16-.21-.3-.03-.41-.17,0,.79-1-.96-1-.31-.25.27-1.03-.17-1.45.21-.59-.48-1.1.88-.66-.67,2.05-1-.48-.41-1.59-1.31-.74-.45-.92-.14-.73,1.28,0,.07-.2-.09-.2.2-.7-.94-1.39.07-2.09.6-.07-2.33-.16,1.57-.26.15-.11.1-.18-1.92-.26-.14-.05-.18.23-.34.53-.63-.38-.89-.47-.35-.47-.74,0-1.63.13-.86.49-.43-.27-.39-.58-.89-.52-.5,0,.37.17-.84.17-.63.05.25.39-1.24.48-.04.05.75.09,1.04.27.42.16.29.06-.76.31-.66.12-.26.31.22.23.32-.07.59-.28-.15-.24.42.06.31.4,1.04.41-.07,0-.46.03-.9.11-.51.26-.35.55-.62.82.24-.39.11-.69.58-.51.74.62.52,1.12-.9,1.64-1.19.38-.78.68,1.04.21.33,1.04.2,1.99-.9,2.74,1.02.27.2.41.27.59-.39.12-.03.14-.44-.13-.45-.11.3-.2-.32-.46.55-.16-1.45-.67-1.54-.59-.95.06-.02.49.43.75.18.21-.33.59.19.71-.17-.16.23.02.08.23.48.14-.89.12-.64.15-.45.3-.14.62.41,1.02-.12-.12,0-.1,1.31-.07.9-.23-.44-.36-1.63-.51.09.12.02.29.15.34.31.02.23-.06.39-.36.9-.6-.42-.58-.95-1.01-.73-.22.14-.45-.77-.61.15.58.36,2.2-.71,2.21,1.62Z"/>
    <path class="cls-1" d="M69.27,20.76c-.15,1.35-.32.36-.53.48-.15-1.06-.14-1.24-.15-.35-.02-.96.22.49.68-.13Z"/>
  </g>
  <g>
    <path class="cls-1" d="M38.48,22.56c0-.25-7.71-.18-7.71,0,.26-.95,1.2-2.47,1.98-.81.15.25-.2.99-.53-.65.53-.32.92-1,1.53-.98.93,1.37,2.32.22,2.78.97.18-2.33-.66,1.63-1.03.94.03,1.43.29.32.52.31.15-.72.35-.06.58-.24.18-1.37.48,2.18.58.07-.16-.99-.63.12-.19-.93.62,2.38,1.23,1.39,1.5,1.31Z"/>
    <g>
      <path class="cls-2" d="M34.37,20.86c-.3-.9-.49-.83-.41-.43.08.29.25-1.77.5-.28.23.48.44.71.49.28.07.84-.21.68-.58.43Z"/>
      <path class="cls-2" d="M33.26,20.76c.26-1.23.46-1.41.61.07.16,1.45.07-.82-.09.44-.14-.03-.37.71-.58.06-.15.63-.15-1.49.06-.58Z"/>
      <path class="cls-2" d="M35.2,20.72c.13-.73.39-.02.52.11.14-.15.11.97-.08.44-.12,1.14-.28-.89-.51.01-.18,1.33-.14.2.07-.56Z"/>
      <path class="cls-2" d="M34.11,22.04c-.21.53-.58-.2-.75,0-.16-.38-.06-.56.28-.51.15-.7.48-.43.47.5Z"/>
      <path class="cls-2" d="M35.23,21.75c.21-.09-.07-1.57-.2.44-.12.85-.48-.65-.52-.24-.03-.1.36-.08.72-.2Z"/>
      <path class="cls-2" d="M34.15,21.13c.07.76.4-.21.46-.05.06-.38.24,1.5.11.27-.09,1.17-.24-.68-.33.17-.08.21-.3-.92-.24-.39Z"/>
      <path class="cls-2" d="M32,21.88c.07.1.14.86.19.14.12,1.01.1-.29,0,.31-.14,1.05-.22-.53-.35-.16-.15.72-.01-.57.15-.29Z"/>
    </g>
  </g>
  <g>
    <path class="cls-1" d="M47.73,22.56c0,.19-7.71.14-7.71,0,.26-1.28,1.2-1.7,1.98-.81.15.18-.2.27-.53-.65.53.83.92,1.47,1.53-.98.93-.31,2.32-1.38,2.78.97.18-.89-.65.94-1.04.94.04-.49.3-.31.51.31.15.66.37-.43.57-.24.2-.26.48.42.59.08-.16,1.36-.64-.1-.2-.93.62,1.23,1.23.61,1.5,1.31Z"/>
    <g>
      <path class="cls-2" d="M43.62,20.86c-.3-.24-.49.96-.41-.43.08.7.25.16.5-.28.23-.04.44-.36.49.28.07-.01-.21,1.15-.58.43Z"/>
      <path class="cls-2" d="M42.51,20.76c.26,0,.46.06.61.07.16,1.59.07-.7-.09.44-.14,1.83-.37.71-.58.06-.15,1.36-.15.2.06-.58Z"/>
      <path class="cls-2" d="M44.45,20.72c.13-.86.39-.29.52.11.14-.7.11.61-.08.44-.12.51-.28-.11-.51.01-.18.7-.14-1.81.07-.56Z"/>
      <path class="cls-2" d="M43.43,22.07c-.39.91-.62-.07-.82-.03-.16.31-.07.12.28-.5.2-2.65.38.76.54.53Z"/>
      <path class="cls-2" d="M44.48,21.75c.21,1.87-.07,2.52-.2.44-.14,1.05-.48,1.59-.53-.24-.04-.51.36-.68.72-.2Z"/>
      <path class="cls-2" d="M43.41,21.13c.07-.65.39.87.46-.05.06.79.23-.97.11.27-.09-.43-.24-.09-.33.17-.08-.49-.31-2.28-.24-.39Z"/>
      <path class="cls-2" d="M41.25,21.88c.07-1.29.14,1.76.2.14.09.5.11-.46,0,.31-.14-.11-.22-1.01-.35-.16-.15-.83-.01-.97.15-.29Z"/>
    </g>
  </g>
  <g>
    <path class="cls-1" d="M56.98,22.56c0-.06-7.71.93-7.71,0,.26-.53,1.2-.98,1.98-.81.15.66-.2-2.04-.53-.65.53-.69.92-.76,1.53-.98.93-.78,2.32.28,2.78.97.18.78-.65.59-1.04.94.04.85.28.9.52.31.15.72.36,1.37.57-.24.21.72.48.75.6.07-.17-.45-.64-.96-.2-.93.62-.11,1.23.68,1.51,1.31Z"/>
    <g>
      <path class="cls-2" d="M52.88,20.86c-.3-.15-.49-.31-.41-.43.08-1.6.25.76.5-.28.23-.2.44.58.49.28.07-.21-.21,1.54-.58.43Z"/>
      <path class="cls-2" d="M51.76,20.76c.26-.61.46-.34.61.07.16-.44.07.39-.09.44-.14.18-.37.41-.58.06-.15.66-.15-.25.06-.58Z"/>
      <path class="cls-2" d="M53.7,20.72c.13.45.39-.48.52.11.14.99.11,1.71-.08.44-.12-.06-.28-.64-.51.01-.18-.17-.14-.56.07-.56Z"/>
      <path class="cls-2" d="M52.61,22.04c-.22,2.39-.58-.19-.75,0-.16-.49-.06.76.28-.51.15.51.49,1.23.47.51Z"/>
      <path class="cls-2" d="M53.73,21.75c.21,1.56-.07,2.66-.2.44-.14-.1-.47.2-.53-.24-.04-1.84.36-.45.72-.2Z"/>
      <path class="cls-2" d="M52.66,21.13c.07.2.37,1.06.46-.05.06,1.16.23.41.1.27-.09.09-.23.53-.33.17-.08.3-.31.3-.23-.38Z"/>
      <path class="cls-2" d="M50.5,21.88c.07.14.14-1.48.19.14.11-1.14.1.31,0,.31-.14-1.82-.22.65-.35-.16-.15.41-.01.06.15-.29Z"/>
    </g>
  </g>
  <g>
    <path class="cls-1" d="M66.4,22.56c0,.09-7.71.06-7.71,0,.26.35,1.2-.98,1.98-.81.15-.91-.2-.43-.53-.65.53-.73.93-.74,1.53-.98.93.11,2.32-.06,2.78.97.18-.06-.65,1.37-1.04.94.03.62.3.47.51.31.15,1.04.37,1.12.57-.24.25.28.38,1.38.66.07-.33-.04-.65-.83-.27-.92.65.65,1.23.49,1.51,1.31Z"/>
    <g>
      <path class="cls-2" d="M62.29,20.86c-.3-.01-.49-.16-.41-.43.08-1.46.25-.59.5-.28.23.57.44,1.12.49.28.07-.03-.21.17-.58.43Z"/>
      <path class="cls-2" d="M61.18,20.76c.26.53.46.03.61.07.16.14.07-.18-.09.44-.14.73-.37-.24-.58.06-.15.12-.15-1.48.06-.58Z"/>
      <path class="cls-2" d="M63.12,20.72c.13.03.39.71.52.11.14.06.11-1.11-.08.44-.12,2.13-.28.55-.51.01-.18.3-.14-1.1.07-.56Z"/>
      <path class="cls-2" d="M62.1,22.07c-.39.79-.62.45-.82-.03-.16,1.38-.07.55.28-.5.2-.59.38,2.86.54.53Z"/>
      <path class="cls-2" d="M63.15,21.75c.21,1.84-.07-.74-.2.44-.13.21-.47-.16-.52-.24-.04-.78.36-1.48.72-.2Z"/>
      <path class="cls-2" d="M62.08,21.13c.07.38.38.45.46-.05.06.9.23.36.1.27-.08,1.06-.24-.09-.33.17-.07,1.55-.31.84-.23-.38Z"/>
      <path class="cls-2" d="M59.92,21.88c.07,1.82.14-.56.19.14.12.25.11,1.18,0,.31-.14-.61-.22.59-.35-.16-.15-.4-.01-.66.15-.29Z"/>
    </g>
  </g>
  <g>
    <path class="cls-1" d="M75.66,22.56c0,.32-7.71-.04-7.71,0,.26-.42,1.2-2.08,1.98-.81.15-.12-.2-.22-.53-.65.53.81.92-1.36,1.53-.98.93.07,2.32.17,2.78.97.18.16-.66,1.4-1.03.94.02.31.31.82.51.31.15-.37.36-.74.58-.24.19-.25.48,1.49.59.07-.17,1-.64-1.58-.2-.93.63.87,1.23,1.09,1.51,1.31Z"/>
    <g>
      <path class="cls-2" d="M71.55,20.86c-.3-1.53-.49.57-.41-.43.08-.39.25-.31.5-.28.23-.47.44.11.49.28.07.19-.21.35-.58.43Z"/>
      <path class="cls-2" d="M70.44,20.76c.26-.9.46.29.61.07.16-.08.07-1.13-.09.44-.14-.32-.37,1.34-.58.06-.15-.93-.15-.03.06-.58Z"/>
      <path class="cls-2" d="M72.37,20.72c.13-.39.39-.49.52.11.14.94.11,1.34-.08.44-.12,1.68-.28.01-.51.01-.18-.36-.14,1.01.07-.56Z"/>
      <path class="cls-2" d="M71.28,22.04c-.22-.27-.58-.86-.75,0-.16-.09-.07-.93.28-.51.15-1.56.48-.39.47.51Z"/>
      <path class="cls-2" d="M72.4,21.75c.21-.12-.07,1.32-.2.44-.15-1.24-.47-.05-.53-.24-.04-.26.36-1.14.72-.2Z"/>
      <path class="cls-2" d="M71.33,21.13c.07-.11.39-.68.46-.05.06.54.24-.51.1.27-.09-.52-.22.61-.33.17-.08.36-.3-1.56-.23-.38Z"/>
      <path class="cls-2" d="M69.17,21.88c.07,1.2.14.87.2.14.11.41.1-1.14,0,.31-.14.77-.22-.76-.35-.16-.15.65-.01-.71.15-.29Z"/>
    </g>
  </g>
  <g>
    <path class="cls-2" d="M83.24,19.33s0,2.94,0,2.86c-1.51.09-2.2-.56-.58-.98-.78-2-2.31-.99-3.29-.19.22.49.19.94-.08.93-.7.36-1.39.55-2.09.6-.07.06-.16-.24-.26.15-.11-.33-.18.27-.26-.14-.05-2.19.23-.3.53-.63-.38,1.98-.47.34-.47-.74,0-.38.13-.68.49-.43-.27.75-.58-.88-.52-.5,0,.07.17-.29.17-.63.05.32.39,1.22.48-.04.05-.22.09,1.11.27.42.16-.63.05-1.5.32-.65.1.8.32-.04.22.31-.07.95-.28,1.6-.24.42.06.47.39,1.07.41-.07.01.32.02-1.2.11-.5.25-.95.55.12.82.23-.39.61-.69.86-.51.74.63-.44,1.1-.7,1.64-1.18-.03.69.87.46.41.15-.07.04-.23-.62-.23.21.96.2,1.73-.08,2.47.67.54.05-.99-1.26-.05-1.04.07-.75.18-.09.26,0Z"/>
    <path class="cls-1" d="M78.52,20.76c-.15,1.44-.32-.26-.53.48-.15-.41-.14-1.13-.14-.34,0-.48.22-1.49.68-.14Z"/>
  </g>
  <g>
    <path class="cls-1" d="M29.23,22.56c0,.81-7.71-1.21-7.71,0,.26-.72,1.2-.73,1.98-.81.15-.55-.2-1.67-.53-.65.53-1.63.92-1.44,1.53-.98.93.51,2.32-.66,2.78.97.18.43-.66-.64-1.03.94.02-.2.32-.21.51.31.15.54.36-.67.58-.24.19-.2.48.76.59.07-.17,1.38-.64-1.69-.2-.93.62,1.74,1.23.97,1.51,1.31Z"/>
    <g>
      <path class="cls-2" d="M25.12,20.86c-.3.21-.49.41-.41-.43.08-1.5.25-1.52.5-.28.23-.72.44-1.13.49.28.07-.38-.21.81-.58.43Z"/>
      <path class="cls-2" d="M24.01,20.76c.26,1.6.46-.48.61.07.16.27.07-1.21-.09.44-.14-.85-.37-.12-.58.06-.15-.24-.15.67.06-.58Z"/>
      <path class="cls-2" d="M25.95,20.72c.13-1.1.39.43.52.11.14,1.25.11-1.02-.08.44-.12-.75-.28,2.09-.51.01-.18.24-.14.86.07-.56Z"/>
      <path class="cls-2" d="M24.87,22.05c-.24.34-.59,1.05-.76-.01-.16-.4-.07-1.52.29-.51.15.1.46-.9.48.52Z"/>
      <path class="cls-2" d="M25.98,21.75c.21-.98-.07.86-.2.44-.14-1.14-.47.39-.53-.24-.04-1.09.36.02.72-.2Z"/>
      <path class="cls-2" d="M24.9,21.13c.07-.21.39-.26.46-.05.06.27.24-.9.11.27-.09-.53-.22.36-.33.17-.08-.16-.3.52-.23-.38Z"/>
      <path class="cls-2" d="M22.75,21.88c.07.22.14,1.1.2.14.11,1.65.11-.11,0,.31-.14-1.02-.22-.18-.35-.16-.15-.77-.01-.15.15-.29Z"/>
    </g>
  </g>
  <g>
    <path class="cls-1" d="M83.24,22.19s0,1.3,0,.34c0-.54-6.04,1.09-6.04.03.26-.41,1.2-1.92,1.98-.81.15-.09-.2-.52-.53-.65.53.62.92-1.89,1.53-.98.93-.51,2.32-.5,2.78.97.18.87-.65-.39-1.04.94.3.52.94-1.18,1.32.16Z"/>
    <g>
      <path class="cls-2" d="M80.8,20.86c-.3-.02-.49-.12-.41-.43.08-1.07.25-.78.5-.28.23,0,.44.11.49.28.07-.36-.21.68-.58.43Z"/>
      <path class="cls-2" d="M79.69,20.76c.26.44.46.6.61.07.16.07.07-.33-.09.44-.14.66-.37,1.27-.58.06-.15.29-.15-.28.06-.58Z"/>
      <path class="cls-2" d="M81.63,20.72c.13-.43.39.26.52.11.14.13.11,1.05-.08.44-.12.23-.28.63-.51.01-.18-.29-.14-.73.07-.56Z"/>
      <path class="cls-2" d="M80.53,22.04c-.21.88-.58-.12-.75,0-.16-1.59-.06-2.6.28-.51.15,1.73.48-.12.47.5Z"/>
      <path class="cls-2" d="M81.66,21.75c.21-.18-.07.05-.2.44-.13.27-.48.44-.53-.24-.03.79.36.66.72-.2Z"/>
      <path class="cls-2" d="M80.58,21.13c.07.33.4.67.46-.05.06.33.24.77.11.27-.09.33-.22-.71-.33.17-.08.4-.3.64-.24-.39Z"/>
      <path class="cls-2" d="M78.42,21.88c.07-.41.14-1.42.2.14.11-.54.11,1.31,0,.31-.14-.37-.22-.87-.35-.16-.15.24-.01-1.28.15-.29Z"/>
    </g>
  </g>
  <g>
    <path class="cls-2" d="M83.24,115.46v2.86c-.17-.02-.18.01,0,.34,0-.1,0,1.58,0,1.85,0-.32-4.17-.55-10.43,0-6.26.27-14.61.39-22.95,0-8.35-.52-16.69,1.03-22.95,0-6.26-.93-10.43-.26-10.43,0,0,.37,0-.98,0-1.85.24.69.37-.35.41-.74.92.05,1.06-.24.42-1.2-.53-1.21-.81-.73-.83-.59,0-1.03,0-.15,0-.34.19-.6.68,0,1.03-.05-.06-.31.73.17,1.12-.25.29.13,1.79.13,2-.1.14-.01.16-.71.18.29.78-.52,2.25-.95,2.96.1.47-.38,1.05-1.05,1.67-.39.29.27.96.02,1.29.32.02.85.05-.04.07-.28.06.03,1.3-.52,1.56-.07.19-.1,1.45.58,1.53.02.14.7.16-.43.19.3.75-.25,2.25-.24,2.94.09.48.16,1.04.12,1.64-.38.13.03,1.3.66,1.36.28.05.05.05-.58.04-.23,1.02-.19,2.04-.13,3.09-.05.15.5.29.55.42.09.87.09,1.74.72,2.6.12.03.4.18,0,.43-.05.85-.61,1.74.23,2.67.13.05-.44.76-.07,1.15-.2.32-.58,1.74-.51,1.96-.08.15-.13.17.24.2.3.76-.95,2.25-.65,2.94.09.48-1.2,1.04-.12,1.64-.38.13.24,1.3.88,1.36.28.05.04.05-.13.04-.23,1.07.08,2.16-.81,3.26-.07.16-.64.21.18.15.58.29-.91,2.36-.67,2.99-.16,0-.31.31-.18.31-.25.85-.18,1.74-.63,2.67.13,0,.17,0-.48.04-.23.19-.6,1.78.43,1.88.16.03-1.27.06-.9.1-.17.41-.5.86.04,1.28-.06.05.2.11.05.16.21.77-.21,1.85.25,2.67,0,.04-.99.19.37.45-.04.87.09,1.75-.26,2.65.18.06.31.75-1.27,1.18-.26.31-.8,1.75.33,1.96-.08.14.17.16-.45.19.29.76.39,2.25.29,2.94.09.48-.61,1.04.05,1.64-.38.09.22,1.32.27,1.33.28.07-.13.5-.39.86-.22Z"/>
    <g>
      <path class="cls-1" d="M83.24,115.29c0-.09,0-.65,0,.17-.09.02-.19.36-.26,0-.95.01.59,1.54.05,1.04-.77-.08-1.55-.87-2.45-.73.48-.03.17-.14-.21-.32-.55.23-1.04,1.04-1.67,1.16-.11-.04.25.45.53-.72-.26.29-.56-.56-.81-.22-.09.34-.1-.23-.11.5-.02.92-.34.21-.41.07-.04.02.17-.09.24-.42.09-.15-.12-.1-.22-.31-.27-.28-.15,0-.31.63-.2-.2-.23-.73-.28-.41-.09-.58-.43-.28-.48.04,0,.78-.17,1.32-.17.63-.06-.72.26-.41.52.5-.36-.5-.49.87-.48.43,0,.45.09.35.47.74-.28.25-.49.18-.68.59-.87-.98-1.64-.64-2.37-1.61.27.16.51.49.68-.11.46.66.33.44.93.72.3.1.38-.87.36-.9-.04-.38-.3-.32-.29-.32.02-.4.29.38.36-.07.16-.81,0-1.16.14-.82-.07.16-1,.4-.91-.04-.14.3-.1-.15-.23.5-.1.1-.19-.48-.23-.13-.06-.1,0-.57-.01-.39-.26-1.15-.52-.71-.73.21.12-.42-.62,0-.75-.16-.08.26.42.78.59.95.26-.67.35-.85.46-.55.26.73.25.59.12.45-.14-.47-.37-.11-.58.37-.74-.16-1.67-1.69-2.77-.95-.01-.67.16-.7.23-.22.46-.58-.44.47-.41-.15-.54-.32-1.01,1.19-1.64,1.18-.17.44.13-1.51.51-.74-.27.04-.56-.06-.82-.25-.07.2-.1.38-.1.52-.01.19-.35-.29-.41.07-.04-.09.17.22.24-.42.09.95-.13-.14-.23-.31-.27.78-.15.22-.32.64-.19-.13-.22-.74-.27-.42-.09-.09-.43.28-.48.04,0,.32-.17,1.02-.17.64-.06.41.26.01.52.5-.36.35-.49,1.19-.48.43,0,.15.09.84.47.74-.28-.57-.49.56-.68.59-.87-.3-1.64-1.85-2.37-1.61.27-.72.51-.12.68-.11.46-.67.33,1.12.93.72.3.34.38-.75.36-.9-.05.51-.22-.7-.34-.31.15.2.28.24.51-.08-.03-.52-.05-.06.07-.9-.4.05-.73.88-1.02.12-.04.95-.01.43-.15.45-.2.07-.39-.88-.23-.48-.12-.49-.5-.33-.71.17-.26-.39-.69-.22-.75-.18-.08.22.42.4.58.95.26.5.35-.41.46-.55.27.44.24.41.12.45-.18-.2-.33,1.14-.59.39-.72-.78-1.66-.84-2.76-.97-.01-.34.16.06.23-.21.46-.36-.44-.95-.41-.15-.54.12-1.01,1.49-1.64,1.18-.18,0,.13-.99.51-.74-.27-.1-.57-.18-.82-.23-.08.45-.1.59-.11.51-.02.65-.34.01-.41.07-.04,0,.17-1.54.24-.42.09.86-.13-1.44-.23-.32-.28.09-.12.44-.35.66-.13-.54-.4-.6-.64-.47-.19-.62-.15,1.02-.44.72.31.69.54.26.71.52-.36-.28-.52-.07-.6.45-.17-.16.3.75.6.69-.27-.34-.5.51-.72.63-.94-.83-1.72-.85-2.5-1.64.28-.06.51-.88.68-.11.45.03.33.96.93.71.3-.13.38-.46.36-.9-.05.95-.22-.15-.34-.31.15.2.28-.81.51-.09-.03-.64-.05-1.02.07-.9-.4-.47-.72-.47-1.02.12-.05-.14-.01.33-.16.46-.06-.68-.13.41-.2-.14-.1-.07.02-.32-.04-.38-.17-.2-.53.73-.71.19.13-.12-.62.28-.75-.16-.08,1.26.42,1.61.59.95.26-.05.35.89.46-.55.26-.22.24-.18.12.45-.18.4-.33-.12-.59.39-.75-.96-1.7-1.49-2.74-1.02.47-.07.16-.22-.21-.33-.55,1.48-1.04,1.46-1.67,1.16-.11-.67.25-.09.53-.72-.26.56-.56.57-.81-.23-.08.09-.09.54-.11.51-.02.65-.34.55-.41.07-.04.5.17.15.24-.42.09.48-.12.08-.22-.31-.26.24-.16.66-.31.63-.2-.07-.23-.4-.28-.41-.09-.14-.43.13-.48.04,0,.07-.17.65-.17.64-.06.27.26.28.52.5-.36-.29-.49-.98-.48.43,0,.32.09.19.47.74-.23.12-.46.4-.65.59-.86-.53-1.64-1.19-2.4-1.6.28-.12.51-.35.68-.11.46-.63.33.97.93.71.3.34.38-.46.36-.9-.04.41-.3.14-.29-.32.02-.77.29-.13.37-.07.16-.77,0-1.24.14-.82-.07.42-1,.53-.91-.04-.15.43-.1.75-.23.49-.1-.33-.19-.46-.23-.12-.06-.49,0-.37-.02-.39-.26-.16-.52-1.22-.73.21.12-.16-.62.08-.75-.16-.08.34.42.93.59.95.26.45.35-.09.46-.55.26,0,.24-.23.12.45-.18.34-.33.67-.59.39-.72-.02-1.66-.98-2.76-.97-.01-.66.16-.23.23-.21.46-.59-.44-.1-.41-.15-.54.25-1.01.66-1.64,1.18-.17.38.13-.29.51-.74-.27-.69-.56-.81-.82-.24-.07.1-.09,1.39-.1.52-.02.33-.34.33-.41.07-.04.15.17.39.24-.42.1-.86-.13-.34-.23-.31-.27.39-.15.26-.32.64-.19-.16-.22.15-.27-.42-.09-1.03-.43-.1-.48.04,0-.45-.17.27-.17.64-.06-.34.26-.24.52.5-.36,0-.49,0-.48.43,0,.58.09.03.47.74-.28-.09-.49.26-.68.59-.87-.45-1.64-.91-2.37-1.61.27-.18.51-1.34.68-.11.46.05.33.73.93.72.3.03.38-1.24.36-.9-.04-.03-.3.75-.29-.32.02.37.29-.31.36-.07.17.02,0-1.03.14-.82-.07-.24-1.04-.15-.91-.04-.15.43-.11,1.27-.22.49-.32-.17-.21-.09-.29-.49-.17.12-.51.42-.69.19.12-.09-.63-.44-.75-.16-.08.26.42,1.24.59.95.26-.18.35.19.46-.55.26-.09.24.11.13.45-.18-.07-.32.4-.59.39-.75-1.47-1.7-1.27-2.74-1.02.47-1.51.16-.8-.21-.33-.55.22-1.04,1.14-1.67,1.16-.11-.35.25-.52.53-.72-.26-.53-.56.03-.81-.22-.09.56-.09-.21-.11.51-.02-.12-.34.95-.41.07-.04-.45.17-1.16.24-.42.1-.53-.12-1.15-.22-.31-.26.31-.16-.34-.31.63-.2-.35-.23.13-.28-.41-.09-.47-.43-.74-.48.04,0-.59-.17.08-.17.63-.06.3.26.68.52.5-.36,1.19-.49-.7-.49.43,0,.72.09,1.57.47.74-.23.22-.46.08-.65.59-.86-.61-1.64-.28-2.4-1.6.28.72.51-.14.68-.11.46-.8.33,1.04.93.71.3-.61.38-1.24.36-.9-.04.58-.3-.17-.29-.32.02-1.01.29.33.37-.07.16-.31,0-.52.14-.82-.07-.95-1.04.36-.91-.04-.14-.1-.11-.47-.21.49-.33.08-.21-1.17-.29-.49-.16-.04-.51-.43-.69.19.12.39-.62.25-.75-.16-.08.64.42.68.59.95.26-.04.35.96.46-.55.26,0,.25.18.12.45-.14-.24-.37-.32-.58.37-.75-.58-1.67-1.84-2.77-.95-.01-.05.16.78.23-.22.46-.7-.44.45-.41-.15-.54.26-1.01,1.21-1.64,1.19-.17-.8.13-.61.51-.74-.27-.65-.57-.6-.82-.23-.08-.8-.1.94-.11.52-.01.47-.35-.44-.41.06-.04-.37.17-.62.24-.42.09.55-.13-.45-.22-.31-.27-.33-.16.2-.32.64-.19-.05-.22-.67-.27-.42-.09-.54-.45-.66-.48.04-.04.79-.12.01-.17.64-.05.18.33.2.5.49-.28-.24-.48.58-.46.44.02,1.2.08.12.48.74-.23.12-.46.64-.65.59-.86-.64-1.64-1.06-2.4-1.6.28-.09.51-.5.68-.11.46-.06.33.87.93.71.3.35.38-.54.36-.9-.04.51-.3.56-.29-.32.02-.18.29-.2.37-.07.16-.51,0-2.02.14-.82-.07-.64-1.04.48-.91-.04-.14.1-.11.83-.22.49-.3.57-.25-.4-.26-.49-.24-.15-.52.76-.72.19.13.03-.62-.02-.75-.16-.08-.64.42,1.31.58.95.26.42.35-.24.46-.55.26-.21.25-.2.12.45-.14-.03-.37,0-.57.37-.57-1.24-1.21-1.32-1.94-.97,0,.15,0-1.24,0-.51,0-.82,4.17.24,10.43,0,6.26.27,14.61-1.03,22.95,0,8.35,0,16.69.48,22.95,0,6.26.35,10.43.43,10.43,0Z"/>
      <path class="cls-1" d="M16.46,118.66c0,.17,0-.94,0-.34.1-1,.12-.4,0-.51,0,0,0-1.64,0-.51.06.66.35-.95.42-.16.04-.47-.28.75-.42,0,0-.47,0-1.08,0-1.01.54.1,1.35.35,1.57,1.1.13.34-.62.23-1.05.94.03.17.31.6.52.3.15.19.36,0,.58-.24.18.14.48,1.48.59.07-.16-1.15-.64-.06-.19-.93.45.98.94.81,1.54,1.24,0,.14-3.56.45-3.56.04Z"/>
      <path class="cls-2" d="M16.46,118.32v-.51c.1,1,.27.25.34.09.1.86-.21-.21-.34.42Z"/>
      <path class="cls-1" d="M78.52,116.89c-.15-.62-.31.64-.53.48-.15.13-.14-.31-.14-.34,0-.1.22-.92.68-.14Z"/>
      <g>
        <path class="cls-1" d="M83.24,118.32s0,.57,0,.34-6.01-.14-6.01-.04c1.38-1.31,1.93-.29,1.97-1,.01.27-.35-.24-.53-.42.5-.74.9-.81,1.5-.96.93-.37,2.32.03,2.78.97.18.17-.65.88-1.04.94.3,1.32.94-.27,1.32.16Z"/>
        <g>
          <path class="cls-2" d="M80.8,116.99c-.3.23-.49-.36-.41-.43.08-.1.25.37.5-.28.23.38.44-.21.49.28.07-.21-.21-.07-.58.43Z"/>
          <path class="cls-2" d="M79.69,116.89c.26.49.46-.5.61.07.16.07.07.61-.09.44-.14-.2-.37-.51-.58.06-.15-.18-.15-1.01.06-.58Z"/>
          <path class="cls-2" d="M80.54,118.18c-.24.53-.59.6-.76,0-.16.05-.07-.32.29-.51.15-.09.46.25.48.51Z"/>
          <path class="cls-2" d="M81.63,116.85c.13-.12.39-.04.52.11.14-.05.11-.13-.08.44-.12.32-.28.56-.51.01-.18-.13-.14-.38.07-.56Z"/>
          <path class="cls-2" d="M81.66,117.88c.21.21-.07.72-.2.44-.14.28-.47.32-.53-.24-.04-.41.36-.38.72-.2Z"/>
          <path class="cls-2" d="M80.58,117.26c.07-.2.38.06.46-.05.06.11.24.2.1.27-.09.3-.22.31-.33.17-.08,0-.3-.21-.23-.38Z"/>
          <path class="cls-2" d="M78.42,118.01c.07-.65.14-.15.19.14.11.6.11.18,0,.31-.14-.52-.22-.66-.35-.16-.15.04-.01.5.15-.29Z"/>
        </g>
      </g>
      <path class="cls-1" d="M60.02,116.89c-.15.27-.32.66-.53.48-.15-.75-.14.4-.15-.34-.01-.25.22.3.68-.14Z"/>
      <path class="cls-1" d="M69.27,116.89c-.15-.13-.32.33-.53.48-.15-.83-.14.46-.15-.35,0,.37.22-1.2.68-.14Z"/>
      <path class="cls-1" d="M50.6,116.89c-.15-.11-.32.84-.53.48-.15-.92-.14-.06-.15-.34-.01-.15.22-.82.68-.14Z"/>
      <path class="cls-1" d="M41.35,116.89c-.15-.16-.32.07-.53.48-.15.32-.14.15-.14-.34-.01-.57.22-.4.68-.14Z"/>
      <path class="cls-1" d="M32.1,116.89c-.15.84-.32.95-.53.48-.15-.18-.14-1.09-.15-.35-.01-1.04.22.17.68-.14Z"/>
      <path class="cls-1" d="M22.85,116.89c-.15-.04-.32,1.38-.53.48-.16.55-.14-.16-.15-.35-.01,0,.22.11.68-.14Z"/>
      <g>
        <path class="cls-1" d="M27.72,117.37c.47-.05.96.74,1.55,1.27,0,.56-7.72.2-7.72,0,.61-.97,1.1-1.56,1.97-.83.1-.17-.22-.28-.54-.58.52-.25.92-1.47,1.52-.97.93-1.14,2.32.49,2.78.97.18.88-.65.57-1.04.94.06.3.27.21.52.3.15-.75.33-.4.57-.24.11,1.19.21.15.23.18.04-.25.4.36.34-.09-.1-.38-.62.09-.18-.95Z"/>
        <g>
          <path class="cls-2" d="M25.12,116.99c-.3-.65-.49-.94-.41-.43.08-1.11.25.05.5-.28.23-.61.44.7.49.28.07-.07-.21.28-.58.43Z"/>
          <path class="cls-2" d="M24.01,116.89c.26.25.46.45.61.07.16-.53.07-.11-.09.44-.14-.41-.37.4-.58.06-.15-.29-.15-.35.06-.58Z"/>
          <path class="cls-2" d="M25.95,116.85c.13.77.39.8.52.11.14.47.11-.05-.08.44-.12.07-.28-.19-.51.01-.18.44-.14-.24.07-.56Z"/>
          <path class="cls-2" d="M24.86,118.17c-.21-.09-.58.76-.75,0-.16-.51-.06-.31.28-.51.15.04.48-.02.47.51Z"/>
          <path class="cls-2" d="M25.98,117.88c.21.3-.07,1.28-.2.44-.14-.41-.48-.54-.53-.24-.04-1.16.36-.7.72-.2Z"/>
          <path class="cls-2" d="M24.9,117.26c.07.08.4-.07.46-.05.06-.16.24,0,.11.27-.09.18-.23.58-.33.17-.08,1.07-.3-.64-.24-.39Z"/>
          <path class="cls-2" d="M22.75,118.01c.07.97.14.25.19.14.12.93.11.13,0,.31-.13.35-.22-.27-.35-.16-.15-.14-.01-.59.15-.29Z"/>
        </g>
      </g>
      <g>
        <path class="cls-1" d="M46.22,117.37c.47,1.14.96,1.4,1.56,1.27,0-.46-7.72.2-7.72,0,.61-.78,1.1-1.6,1.97-.83.1.16-.22-.08-.54-.58.52-.25.92.04,1.52-.97.93-.57,2.32.72,2.78.97.18,1.11-.65,2.14-1.04.94.06-.01.29.02.52.31.16-1.04.34.25.58-.25.11.34.21.48.23.19.04-.28.4-.3.34-.1-.1.38-.62-.12-.19-.95Z"/>
        <g>
          <path class="cls-2" d="M43.62,116.99c-.3-.22-.49-1.19-.41-.43.08.19.25.18.5-.28.23-.87.44-.16.49.28.07.11-.21.25-.58.43Z"/>
          <path class="cls-2" d="M42.51,116.89c.26-.28.46.89.61.07.16.51.07.19-.09.44-.14.25-.37-.46-.58.06-.15.92-.15-.59.06-.58Z"/>
          <path class="cls-2" d="M44.45,116.85c.13-.45.39.15.52.11.14.74.11.61-.08.44-.12-.42-.28-.31-.51.01-.18,0-.14.52.07-.56Z"/>
          <path class="cls-2" d="M43.36,118.17c-.22.31-.58.34-.75,0-.16.48-.06-.83.28-.51.15-.27.49.99.47.51Z"/>
          <path class="cls-2" d="M44.48,117.88c.21.22-.07.28-.2.44-.14-.34-.47.36-.53-.24-.04-.2.36-.62.72-.2Z"/>
          <path class="cls-2" d="M43.4,117.26c.07-1.36.39-.05.46-.05.06-.24.24-.43.11.27-.09.26-.24-.13-.33.17-.08-.37-.3-.13-.24-.39Z"/>
          <path class="cls-2" d="M41.25,118.01c.07.29.14.68.2.14.11.26.11-.13,0,.31-.14.06-.22.07-.35-.16-.15,0-.01-.48.15-.29Z"/>
        </g>
      </g>
      <g>
        <path class="cls-1" d="M55.47,117.37c.47.81.96,1.47,1.56,1.27,0,.25-7.72-.45-7.72,0,.61-.69,1.1-1.34,1.97-.83.1-.99-.22.59-.54-.58.52-.18.92-.2,1.52-.97.93-.5,2.32.37,2.78.97.18.5-.65.82-1.04.94.06,1.06.27.19.52.3.15-.74.33-.75.57-.24.11.11.21.38.23.18.04.1.4-.33.34-.09-.1-.64-.62-.07-.19-.95Z"/>
        <g>
          <path class="cls-2" d="M52.88,116.99c-.3-.4-.49-.05-.41-.43.08-.32.25-.05.5-.28.23.1.44.28.49.28.07.14-.21,1.3-.58.43Z"/>
          <path class="cls-2" d="M51.76,116.89c.26-.5.46-.27.61.07.16.24.07-.15-.09.44-.14.25-.37.39-.58.06-.15.14-.15-1.55.06-.58Z"/>
          <path class="cls-2" d="M53.7,116.85c.13-.4.39.19.52.11.14-.24.11.12-.08.44-.12-.57-.28.18-.51.01-.18.08-.14-.26.07-.56Z"/>
          <path class="cls-2" d="M52.68,118.2c-.39.24-.62.55-.82-.03-.16-.15-.07-.6.28-.5.2-.08.38-.27.54.53Z"/>
          <path class="cls-2" d="M53.73,117.88c.21.48-.07-.67-.2.44-.14-.39-.48-.24-.53-.24-.04-.54.36-.57.72-.2Z"/>
          <path class="cls-2" d="M52.66,117.26c.07-.95.38-1.36.46-.05.06-.41.23.26.1.27-.09.58-.23.22-.33.17-.08-.21-.3-.33-.23-.38Z"/>
          <path class="cls-2" d="M50.5,118.01c.07-.32.14-.49.2.14.11.01.11.46,0,.31-.14-.46-.22.16-.35-.16-.15.17-.01-1.05.15-.29Z"/>
        </g>
      </g>
      <g>
        <path class="cls-1" d="M64.89,117.37c.47,1.56.96.94,1.56,1.27,0,.23-7.72.13-7.72,0,.61-1.22,1.1-1.2,1.97-.83.1-.86-.22-.02-.54-.58.52-.06.92-.86,1.52-.97.93-1.03,2.32-.04,2.78.97.18.57-.65.75-1.04.94.06-.41.29.28.52.3.15.62.33-.48.58-.24.11-.29.21-.31.23.19.04-.39.41.89.34-.09-.1-.93-.62-.05-.19-.95Z"/>
        <g>
          <path class="cls-2" d="M62.29,116.99c-.3.24-.49-.02-.41-.43.08-.63.25-.37.5-.28.23-.53.44.9.49.28.07.34-.21-.07-.58.43Z"/>
          <path class="cls-2" d="M61.18,116.89c.26-.27.46-.56.61.07.16.26.07-.13-.09.44-.14-.6-.37.43-.58.06-.15-.19-.15,1.38.06-.58Z"/>
          <path class="cls-2" d="M63.12,116.85c.13-.57.39.31.52.11.14-.45.11.73-.08.44-.12.09-.28-.15-.51.01-.18.2-.14-.6.07-.56Z"/>
          <path class="cls-2" d="M62.03,118.17c-.23.33-.58.12-.75,0-.16-.59-.07-.26.28-.51.15.87.48.36.47.51Z"/>
          <path class="cls-2" d="M63.15,117.88c.21-.25-.07,1.46-.2.44-.14-.93-.48.52-.53-.24-.04-.57.36-.13.72-.2Z"/>
          <path class="cls-2" d="M62.08,117.26c.07-.09.4.2.46-.05.06.72.24.09.11.27-.09-.19-.24.67-.33.17-.08-.58-.3-.01-.24-.39Z"/>
          <path class="cls-2" d="M59.92,118.01c.07.06.14-.21.2.14.1.35.11-.19,0,.31-.14-.54-.22.05-.35-.16-.15-.36-.01.17.15-.29Z"/>
        </g>
      </g>
      <g>
        <path class="cls-1" d="M74.14,117.37c.47.74.96.44,1.56,1.27,0,.56-7.72-.39-7.72,0,.61-1.43,1.1.11,1.97-.83.1-.62-.22.21-.54-.58.52.47.92-.41,1.52-.97.93-.31,2.32.13,2.78.97.18-.07-.65.54-1.04.94.06.49.29.08.52.31.15.33.33-.23.57-.24.11-.65.21-.22.23.19.04.49.4.12.34-.09-.1.4-.62-.74-.19-.95Z"/>
        <g>
          <path class="cls-2" d="M71.55,116.99c-.3.33-.49.56-.41-.43.08.27.25.13.5-.28.23.61.44-.42.49.28.07.54-.21.34-.58.43Z"/>
          <path class="cls-2" d="M70.44,116.89c.26.22.46.45.61.07.16.27.07.25-.09.44-.14-.56-.37.93-.58.06-.15-.55-.15-1.33.06-.58Z"/>
          <path class="cls-2" d="M71.28,118.17c-.21-.02-.58.16-.75,0-.16-.43-.07-.1.28-.51.15.67.48.88.47.5Z"/>
          <path class="cls-2" d="M72.37,116.85c.13-.64.39-.26.52.11.14-.06.11.33-.08.44-.12-.03-.28-.25-.51.01-.18.04-.14-.57.07-.56Z"/>
          <path class="cls-2" d="M72.4,117.88c.21.18-.07-.45-.2.44-.14-.62-.47.4-.53-.24-.04-.63.36,0,.72-.2Z"/>
          <path class="cls-2" d="M71.33,117.26c.07-.07.4-.35.46-.05.06.03.24-.26.11.27-.09-.28-.22.34-.33.17-.08.06-.3-.1-.24-.39Z"/>
          <path class="cls-2" d="M69.17,118.01c.07-.13.14.66.19.14.12.34.1,1.16,0,.31-.14.05-.22-.46-.35-.16-.15.36-.01.02.15-.29Z"/>
        </g>
      </g>
      <g>
        <path class="cls-1" d="M36.97,117.37c.47-.14.96.96,1.56,1.27,0-.07-7.72.2-7.72,0,.61-1.39,1.1-.74,1.97-.83.1-.34-.22-.11-.54-.58.52-.6.92-1.05,1.52-.97.93-.51,2.32.57,2.78.97.18-.02-.65.47-1.04.94.06.99.27.22.52.3.15-1.02.33-1,.57-.24.11-.43.21-.07.23.18.04-.18.4-.14.34-.09-.1-.99-.62-1.75-.18-.95Z"/>
        <g>
          <path class="cls-2" d="M34.37,116.99c-.3-.32-.49-.51-.41-.43.08-.09.25.38.5-.28.23-1.07.44.91.49.28.07-.1-.21.79-.58.43Z"/>
          <path class="cls-2" d="M33.26,116.89c.26-.72.46,0,.61.07.16.44.07.02-.09.44-.14-.11-.37-.44-.58.06-.15-.8-.15-.61.06-.58Z"/>
          <path class="cls-2" d="M35.2,116.85c.13.6.39.17.52.11.14-.33.11-.15-.08.44-.12-.11-.28.65-.51.01-.18-.38-.14.28.07-.56Z"/>
          <path class="cls-2" d="M34.12,118.18c-.24.37-.59.99-.76,0-.16-.28-.07-.95.29-.51.15.87.46-.43.48.51Z"/>
          <path class="cls-2" d="M35.23,117.88c.2.43-.07.39-.2.44-.14-.02-.47.24-.52-.24-.04.2.36-.26.72-.2Z"/>
          <path class="cls-2" d="M34.15,117.26c.07-1.34.39.4.46-.05.06-.29.23.56.11.27-.09-.66-.24.63-.33.17-.08.69-.31.28-.24-.39Z"/>
          <path class="cls-2" d="M32,118.01c.07-.59.14.23.19.14.11-.36.11.4,0,.31-.14.53-.22-.6-.35-.16-.15-1.29-.01.38.15-.29Z"/>
        </g>
      </g>
    </g>
  </g>
  <g>
    <path class="cls-2" d="M67.1,22.57c-.09-1.09-.17.5-.29.16-.16-2.05-.3-1.6-.41-.17,0-.24-1-.51-1-.31-.1.76-.66,2-.96.08-.61,1.28-1.68-.27-1.11-.58,2.32-1.24-1.72-2.26-2.48-.72.22,2.12.19,1.98-.08.93-.7-.08-1.39-1.42-2.09.6-.07-.07-.16.48-.26.15-.11.57-.19-.38-.27-.15-.05-1.77.25,1.43.53-.62-.29,1.24-.77-1.02-.6-.7.09-.36.24,1.67.6-.45,0-.15-.69,0-.69-.54.31-1.78.24.17.41-.7.27-1.63.49.29.66.47.21.78.07-.7.34-.65.1-1.02.31-.24.22.32-.07.62-.28-.91-.24.42.05.04.39.19.41-.07,0-.22.03-1.74.11-.51.26-1.43.55-1.11.82.24-.39.31-.69,1.02-.51.74.62-1.02,1.12.57,1.64-1.19.38-.23.68-.22.21.33,1.04-1.04,1.99-.51,2.74,1.02.27,1.61.41.24.59-.39.12-.25.13-1.1-.13-.45-.11,1.34-.21-.41-.46.55-.16-.4-.67-.79-.58-.95.07.44.5-.64.75.18.21-.94.59-.07.71-.17-.16-1.04.02,1.43.23.48.14,1.03.11-.27.15-.45.3,1.06.62-.29,1.02-.12-.12,1.57-.1.08-.07.9-.23,0-.36.52-.51.09.12,1.05.29-.28.34.31.02-.1-.06.02-.36.9-.6.2-.48.96-.93-.71-.17.7-.4.53-.68.12.4,1.44,2.2,2.59,2.21,1.64Z"/>
    <path class="cls-1" d="M60.02,20.76c-.15.3-.31.06-.53.48-.15.22-.15-2.49-.15-.35,0-1.19.22-1.67.68-.14Z"/>
  </g>
  <g>
    <path class="cls-2" d="M29.93,22.57c-.09-1.25-.17.49-.29.16-.16,1.96-.3-.24-.41-.17,0,1.03-1,.14-1-.31-.25,1.69-1.03-.04-1.45.21-.59.37-1.1-.99-.66-.67,2.05-.37-.48-1.86-1.59-1.31-.74,1.21-.92.85-.73,1.28,0-1.16-.2.04-.2.2-.7-1.11-1.39-.9-2.09.6-.07-.3-.16.51-.26.15-.11.81-.18-2.41-.26-.14-.14,0,.39-1.63.47-.63-.22-.59-.46-.88-.42-.74.03-1.36.12-.21.49-.43-.27.11-.58.17-.53-.5,0-1.16.17-1.25.17-.63.05-.24.39.16.48-.04.05-1.01.09-.47.27.42.16-.89.05.44.32-.65.1-1.82.32-1.14.22.32-.07.18-.28-.56-.24.42.06.7.39.74.41-.07.01-.36.03-.95.11-.51.25-.04.55-.63.82.23-.39.88-.69.73-.51.74.62-.98,1.12,1.77,1.64-1.19.38,0,.68-.02.21.33,1.04.06,1.99.69,2.74,1.02.27.97.41.57.59-.39.12-1.83.14-1.33-.13-.45-.11-.07-.2-.13-.46.55-.16-2.31-.67.11-.59-.95.06-1.85.5-1.85.75.17.24,1.97.57-.57.73-.16-.11-.3.13-1.01.22.48.12-1.41.12-.19.15-.45.3-.11.62-1.15,1.02-.12-.12-2.34-.1-.18-.07.9-.23-.22-.36.73-.51.09.12.14.29.26.34.31.02.14-.06,1.17-.36.9-.6.64-.58-1.85-1.01-.73-.22-.2-.45,1.85-.61.15.58.14,2.2,2.21,2.21,1.62Z"/>
    <path class="cls-1" d="M22.85,20.76c-.15-.23-.32,1.24-.53.48-.15-.24-.14-1.19-.15-.35-.01.21.22-.07.68-.14Z"/>
  </g>
  <g>
    <path class="cls-2" d="M19.98,22.56c.17-.79.51-1.42.7,0,.09.02.22.3.31,0,.19.24.33.99.53,0,.19-.45.41.29.66-.34.62.03,3.17-.29,3.95,0,.29-1.08.68.25,1.18.11,0,.28.47,1.06.47.12.36-.09.84-.57,1.45.1.17,1.81.51-.88.7,0,.09-1.36.22-1.11.31,0,.2-.33.33,1,.53,0,.19,1.43.41,0,.66-.34.62-.82,3.17-.66,3.95,0,.29,1.23.68,1.38,1.18.11,0,.01.47-.55.47.12.35.22.84-.92,1.45.1.17-1.11.51-1.17.7,0,.09,1.28.22-.62.31,0,.2-2.55.33-1.67.53,0,.19-.97.41-1.18.66-.34.62.71,3.17,1.4,3.95,0,.29.53.68,1.22,1.18.11,0,1.05.47-.59.47.13.35-.16.84-.94,1.45.1.17.79.51.39.7,0,.09-.86.22-1.35.31,0,.2-1.49.32-2.03.53,0,.19.96.41.74.66-.34.62.06,3.17.58,3.95,0,.29.4.68-1.32,1.18.11,0-1.15.47-.13.47.13.35-1.12.84-.06,1.45.1.19-.79.51.02.7,0,.09-.92.29-2.32.48,0,.16-.09.34-.84.53,0,.19-1.32.41.81.66-.34.6.47,3.2.4,3.95,0,.11-1.12.23-.71.41.23.29-.23,1.38-.08,1.46-.23,0-1.21.41.43,1.23.34.17-.01.51.49.7,0,.09,1.55.22-1.6.31,0,.2.7.33-2.07.53,0,.19.75.41-1.7.66-.34.61,1.3,3.2.05,3.95,0,.29.8.68.17,1.18.11,0,.23.47-.13.47.12.35-1.09.83-1.6,1.45.1.17-.1.51,1.39.7,0,.09-.42.22-.28.31,0,.2.33.33-.17.53,0,.16.53.37.14.57-.33.5.77,3.46.36,4.09-.03.27,1.06.69-.34,1.28.12,0-.54.11.87.11.21,0-.14,0,3.35,0,9.65v83.12c-.4-.48-.61-.05-.63.34,0-.75-1.79.12-1.79-.1-.26-.14-.62-.67-1.08.1-.58-.19-1.07.25-1.48,0-.19-.06-.44-.35-.7,0-.26-.23-.6.13-1,0-.35-.06-.98-.03-1.34,0-.08.16-.17-.08-.28-.24-.07.38-1.17.99-1.45.03-.1.17-.2-.89-.3.21-1.02.31-1.97-.02-2.85,0-.52-.6-.97.68-1.35,0-.23-1.11-.46-.1-.69,0-.29.33-.64.11-1.05,0-.41.15-1-.77-1.44,0-.4-1.07-.89-.89-1.47-.25-.5.11-1.13.7-1.89.16-.43.28-.94-.6-1.54.09-.44-1.14-.83-1-1.17,0-.26-.35-.52-.15-.79-.03-.35.12-.75-.09-1.19.03-.39-.2-.8-.39-1.2,0-.55.09-1.48-.2-2.02,0-.7.17-1.38.55-2.03-.26-.77.81-1.59.11-2.45.03,0-.02-.41-.9-.41.23-.31-.42-.72.28-1.23,0-.39.05-.81.61-1.22,0-.57-.14-1.44-.47-2.03,0-1-.3-1.94.09-2.82,0-.44-.52-.84-.25-1.19,0-.26.3-.53-.01-.79,0-.29.56-.69.55-1.18,0-.37-1.96-.77-.07-1.16,0-.51.4-1.41.28-1.9,0-.65-.3-1.27-.68-1.86-.26-.74.35-1.45.25-2.16.1,0-.75-.35-.83-.35.15-.23-.18-.46.47-.69,0-.23.12-.57-.5-1.02,0-.37-.36-.93-1.21-1.32,0-.63-1.11-1.51-.03-2.2,0-.93-.05-1.78-.65-2.58,0-.52-.39-.95.03-1.3,0-.23-.65-.49-.8-.73,0-.34-.46-.71.48-1.13,0-.35-.76-.8.18-1.2-.01-.15,1.25-.29.53-.36-.24-.46-.3-.91.65-1.37,0-.17-.18-1.21.98-1.39-.1,0,.76,0-4.03,0-9.65V32.17c0-5.67,0-10.2,0-9.65.14-1.39.44-1.61.68-.11.49,1.27.96.93,1.41.03.38-1.44.86-.29,1.44.11Z"/>
    <g>
      <path class="cls-1" d="M77.34,111.56c0-.22-1.44-.01-3.85-.05-2.41.38-5.77,0-9.62.05-3.85.64-8.18.59-12.51.24-4.33-.04-8.66-.08-12.51-.23-3.85-.75-7.22-.78-9.62-.61-2.41.5-3.85.73-3.85.61,0-.23,0-.39,0-3.67,0-3.62,0-5.72,0-9.67,0-2.27,0-3.32,0-6.4,0-3.3,0-4.91,0-7.45,0-2.56,0-5.66,0-7.16,0-2.81,0-4.8,0-8.33,0-1.95,0-4.75,0-8.46,0-3.11,0-5.94,0-7.24,0-2.04,0-5.85,0-7.34,0-2.59,0-3.7,0-6.29,0-3.53,0-7.55,0-9.02,0-2.94,0-3.45,0-4.32,0,.21,1.44-1.33,3.85-.21,2.41.76,5.77-.52,9.62.21,3.85-1.12,8.18-.42,12.51.09,4.33-.41,8.66.2,12.51-.09,3.85.42,7.22.21,9.62.76,2.41-.54,3.85-.63,3.85-.76,0,.37,0,1.72,0,4.37,0,2.51,0,4.42,0,8.96,0,1.18,0,4.7,0,6.41,0,2.38,0,6.09,0,7.37,0,2.44,0,6.03,0,7.52,0,1.95,0,4.37,0,8.03,0,4.01,0,5.98,0,8.24,0,2.14,0,5.56,0,7.42,0,2.55,0,4.45,0,7.09,0,1.68,0,4.23,0,6.57,0,3.17,0,6.75,0,9.67,0,3,0,3.68,0,3.67Z"/>
      <path class="cls-2" d="M76.84,111.06c0-.1-1.42.16-3.77.18-2.36-.42-5.66-.12-9.44-.17-3.77.7-8.02.45-12.27.21-4.25-.06-8.49-.25-12.27-.2-3.77-.31-7.08-.65-9.44.17-2.36.43-3.77.22-3.77-.16,0,1.01,0-1.56,0-3.62,0-2.11,0-5.25,0-9.55,0-1.78,0-4.13,0-6.75,0-2.61,0-5.44,0-6.81,0-.67,0-4.2,0-7.08,0-2.97,0-4.99,0-8.34,0-2.47,0-4.05,0-7.7,0-1.8,0-4.48,0-7.31,0-3,0-5.95,0-7.53,0-2.64,0-3.77,0-6.45,0-4.67,0-7.68,0-9.88,0-3.19,0-4.78,0-3.3,0-.27,1.42-1.45,3.77,0,2.36-.63,5.66-.04,9.44,0,3.77.17,8.02,1.82,12.27-.34,4.25.2,8.49.67,12.27.34,3.77.19,7.08-.41,9.44.26,2.36-.5,3.77.39,3.77-.26,0,.39,0,1.4,0,3.54,0,2.05,0,4.92,0,9.64,0,1.56,0,4.72,0,6.53,0,2.06,0,4.66,0,7.1,0,2.88,0,5.27,0,7.87,0,3.27,0,5.68,0,7.48,0,3.15,0,3.74,0,7.59,0,3.7,0,5.05,0,7.88,0,2.19,0,5.14,0,7.49,0,2.11,0,4.44,0,6.01,0,4.14,0,7.35,0,9.55,0,2.03,0,2.92,0,3.62Z"/>
      <g>
        <g>
          <path class="cls-1" d="M50.77,64.45c.56.21.56.83,0,0,.16.09.36.19.59-.77.2-.71.5.32.73.35.4-.51.11,1.18-.08,1.24-.17-.67-.61,2.88-1.05.51-.39,1.01-.69-.75-.67-.71.02,1.16.23-2.51.47-.63Z"/>
          <path class="cls-1" d="M52.79,64.45c.56-2.2.56-.88,0,0,.16-.35.36-.38.59-.77.2-2.11.5-1.37.73.35.4-.03.11.81-.08,1.24-.17,1.83-.61,1.48-1.05.51-.39-.21-.69-1.88-.67-.71.02.51.23-.44.47-.63Z"/>
          <path class="cls-1" d="M48.96,66.29c.11-.16.61-1.89.57-.96-.04-1.84-.46.09-.79-.79.3-.45.71-1.43.71-.73-.3-.27-.54.13-.74-.15.42,1.31.85.86,1.52-.17-.09-.61-.5-.05-.66.6.19-.07.52.06.34,1.16-.18,2.14-.36,1.78-.94,1.04Z"/>
          <path class="cls-2" d="M50.77,64.45c.4-.12.65-.78.84.08.13.21.51.94.23.65-.23.42-.58-.65-.77-.08-.14-.2-.21-.03-.3-.64Z"/>
          <path class="cls-2" d="M52.79,64.45c.4-1.51.65-.36.84.08.13.15.51-.01.23.65-.23.56-.58.53-.77-.08-.14-.46-.21-1.25-.3-.64Z"/>
        </g>
        <g>
          <path class="cls-1" d="M45.45,56.05c-.08-.66.57-.64.11-1.63-.15-.74-.43.27-.5.05-.2-.32,0,1.54.12,1.41.07-1.07-.38.42-.63.25-.2-1.92-.32.25-.12-.72.3-.81-.06.71-.08-1.15-.04-.78.29-.9.68-.91.03-2.12,0,1.37.12.59.08-.11.31-.37.45.1.13-1.34-.03-.26.12-.48.17-.68.46.72.48-.15.05,1.97.16-.78.38.75-1.25,1.98.9,2.56-1.13,1.87Z"/>
          <path class="cls-1" d="M36.89,55.16c.73-1.12.73.89.65-1.34.05.82.14,2.36-.38,1.05.02.88-.03-.09-.25-1.02-.17.41-.43-.78-.98-.3.24-.85.41-1.59.69-.97.38.3.48.64.74.92,0,.34,1.19-1.33,1.19-.5-.38,1.7-.13.76-.1,1.54.02-.69-.22,1.16.25,1.32-.08-.15-.36.06-.47.29-.14.04-.3-.68-.48-.47-.36.06-.46.8-.79.56-.41-.99-.9-1.61-1.51-.57.21-.16.98-.31,1.43-.52Z"/>
          <path class="cls-1" d="M43.66,56.11c-.22-1.78-.66.76-.93-.32.36-1.46-.23-2.03.62-1.89.29-.35.39-.5.61.46.25,1.16-.28,1.21-.56.93-.17-.06.35,2.42.53.5.04-.96-.09,1.09-.28.31Z"/>
          <path class="cls-1" d="M47.53,56.11c-.22-.59-.67-1.01-.93-.32.36-1.5-.23-2.17.62-1.89.29-2.1.39,1,.61.46.25.86-.29.34-.56.93-.17-1.65.34,1.49.53.5.04-2.34-.1.03-.28.31Z"/>
          <path class="cls-1" d="M48.74,54.75c-.03-1.31,0,.85.54.98-.11,1.2-.36-.53-.58.31-.15-1.7-.48.71-.51-.31.23-1,.21-2.1-.04-1.42-.06-.83.27-.38.39-.39.12.61.22.66.31.21.12.39.17.86.32-.23.16-.24.28,2.24.28.38,0,1.43-.04,1.11-.28.56-.07.62-.1.79-.16-.31-.11-.53-.25.41-.26.23Z"/>
          <path class="cls-2" d="M36.89,55.16c.17,2.22.21-1.76.27-.29.43.36.25-.35.41-1.21.13,1.79.14,1.28.02,1.81-.21,2.67-.54-.14-.7-.31Z"/>
          <g>
            <path class="cls-1" d="M55.82,55.69c.05-2.45.05-3.17,0,0-.4,0-.57,2.9-.79.47-.23,1.5-.5.84-.74-.29-.45-1.14-.54,2.9-.87.13-.32.31-.15-.37-.12-.82.03,1.17-.1-1.51.3-1.42.08-.31-.66-.71-.72-.19-.23,1.91.06,1.09-.1,2.28-.08.54-.55-.4-.74.22-.24-.93-.21-1.84-.12-.74.13-3.14.03-2.1.05-1.7,0-1.47-.72.62-.68.02.26,1.4.18.35-.14,1.69.03-.87.32,1.85.33.46,0,.34-.14.81-.35.39-.33-.45-.6,1.22-.88-.24,1.9-1.01-1.04-1.81.85-3.12.08-.49-.04-.36.09.67.41-.04.61-1.6.95-.62.18-.78.4-.39.59.32.19-.77.37-.88.57-.3.33.77.63.17.89.41-.53,1.54-.61,2.98.04,2.45.24.3,0-.19.11-1.37.27-.25,1.46-.25,1.95-.55.41,1.81.16,1.73.22,1.59.02-.03.49,1.58.5.04.07-.6-.15-.66-.07-1.26.11.01.27-2.96.6-.33-.13,3.13.05,1.03.08,1.96.01-.7-.57-.07-.74.1-.38-.51-.87-.95-1.04-.22Z"/>
            <path class="cls-2" d="M55.17,55.79c-.42-.32-.55-1.78-.45-1.38.69,1.1.72,2.23.45,1.38Z"/>
            <path class="cls-2" d="M55.82,55.69c-.14.29-.37-2.51.03-1.46.21,1.45.28.31-.03,1.46Z"/>
          </g>
          <g>
            <path class="cls-1" d="M65.62,55.9c-.21,1.33-.46,1.55-.55.21-.16,1.03-.35.28-.51-.22,0,.11-.42,2.02-.42.24-.1-.69-.5-.45-.5-.3,0,.72.21-.69.04-1.33-.13,1.01-.19.67-.29.26-.15,2.21-.18.28-.33-.26-.32-.22-.14,1.35-.18.75-.04.81.27-.33.53.51-.35.33-.78.54-1.19-.02.36-1.43.43-1.53-.13-1.37-.54.18-.18-.16-.08,1.49.07-1.71-.37,2.83-.63.26-.2-.25-.32-.56-.12-.72.29-1.02-.04-2.31-.09-1.15-.06-.77.4-3.45.68-.82.09,2.11.01.42.24.62.55-.06.04-1.09.82.03.1-.34.26-1.28.39-.25.17-.09.18-1.7.39.51.15-2.31,1.21-.22,1.45-.23.21,2-.45,1.56.33,1.54.83.06-.28-1.16.33-1.7.2.42.24.02.47.13.29-.15.42.4.64-.15.62,1.91.4,2.22.15,1.92-.16.5-.41,1.04-.81.22,0,.78.08,1.65-.1.76-.11-1.22-.32-.26-.58.17.02-1.8.42-.9.06-1.11Z"/>
            <path class="cls-2" d="M64.23,54.34c.65.48.5.62.5,1.26,0-.24-.42.62-.46.04-.13-.91-.02-.07-.05-1.31Z"/>
            <path class="cls-2" d="M66.74,55.57c-.06-1.02-.47,1.53-.48-.2,0-.32-.12-.03.11-.85.43-.02.41.42.36,1.05Z"/>
          </g>
          <g>
            <path class="cls-1" d="M41.19,53.34c.21-.66.21.4,0,0,.07.03.33-.93.56-.47.19-1.08.59-.97.56.4-.03.41-.37.41-.28.48.06,2.19.36-1.04.48.29.44,1.32.03.29-.32,1.49-.43-.8-.43-.31,0,0,.15,2.2-1.93-.64-1.1.81-.25.05.43-.03-1.65-.72.72,1.41,1,.24.76-1.63-.08.25-.32.06-.29-.76.03.58.55.51.66-.35.17-.12.32.12.61.46Z"/>
            <path class="cls-2" d="M42.19,55.52c-.48-.36-.91.67-.98-.3-.09-.09-.07-1.74,0-.98.21.27.61-1.77.82.38.27,1.37.14,1.52.16.89Z"/>
            <path class="cls-2" d="M41.02,55.06c.03-.61-.58,1.53-.51,0,.27.3.34-.05.41-1.41.22.76.05,1.5.11,1.4Z"/>
            <path class="cls-2" d="M41.19,53.34c.11,2.98.21,1.37.27.18.13-.11.05.48-.2.48-.14,2.3-.06.73-.07-.67Z"/>
          </g>
          <g>
            <path class="cls-1" d="M60.23,55.29c-.22-.49.86,1.05.37.77-.22-1.3-.4-.32-1.17-.31-.17.42-.27.34-.49.39-.35,0-.81-.33-1.09-.52.26.74.26,1.4.22-.83-.07-.31.67-.28,1.18-.87.18.06.3.06.28.07-.46,1.16-.29.4.07,1.47.36-.99-.44-1.99.71-1.61.22-.31.33-.32.47.5.29-2.32-.39,1.4-.55.93Z"/>
            <path class="cls-2" d="M58.54,55.12c.09-.98.25,1.03.31-.02.1-.86.24-.37.16.34-.09-.06-.2-1.51-.26.09-.17-.81-.34.54-.21-.41Z"/>
          </g>
        </g>
        <g>
          <path class="cls-1" d="M34.29,42.73c-.04.31-.04,1.77,0,0,.15.66.52.06.49-.23,0,1.22-.33,2.48-.33,1.77,1-.62.88-.8,1.68-.01.96-1.47.55.2.8,2.78.02.58-.43,1.5-.46.35-.02-1.85-.41-1.32-.42-.43.01-1.14.24-3.55-.26-2.28-.48,2.35.12,3.62-1.2,3.7.49-1.07.41-2.28.26-2.78-.04-1.28.24,1.78,0-.64-.2,1.11-.45-1.57-.64-.17-.26.42-.62,1.93.24,2.08-.26.01-.39.23-.59.54-.1-.27-.88.93-.91-.53-.01-.28.26-.14.26-.32,0-.37.11-2.74.11-3.12.01.05.68-.76.95-.69Z"/>
          <path class="cls-1" d="M63.07,46.92c-.21-.25.44-2.22-.6-2.22-.56,1.83.5,3.63-.51,2.76-1.19,1.31.15-2.98-.7-2.84.19,1.48.54.74.66-.52,0,.59.56-.94.56.43.17-.22.5-1.61.69-.41.21.4.76,1.63.79.34-.39,3.05.51,1.51-.37,2.99-.19.04-.49-.34-.53-.51Z"/>
          <path class="cls-1" d="M72.3,44.13c-.58,2.74-.55,1.33-.48,2.47.03.44-.2,1.85-1,2.14.28-.44.08-1.53.15-3.68.01-1.96-.26.04-.26-.42,0,.56.21-.97.24-.59.07-.78-.14-.96.28-1.14.3.93.7-.85,1.12-.24.09-.25.3.72.28.3-.1,1.66-.82-.28-.84.67-.01,1.05.11.73.52.48Z"/>
          <path class="cls-1" d="M53.82,46.38c.03-.49.52-.43.84.45-.28-2.02-.44,1.7-.75.55-.41,1.51-.74.75-1.09-.33.56-.33.31-2.14.17-2.35-.05-.07.32-1.18.55-.58,0,.95.37.91.37.27.15.36.26-.83.49-.28.32,1.12.49,1.16.49.71,0-1.02-.3,0-.58.72.02-1.24-.26-1.02-.46-.6-.11,1.88-.07,1.34-.04,1.43Z"/>
          <path class="cls-1" d="M58.24,46.64c-.2.17-.45,1.56-.72.82,0-.33-1.19-.65-1.19-.58.02.16-.11-1.97.06-2.25.09-.28.6.64.84-.63.24,1.15.62-.6.87.5.27,1.04-.02.19-.25.54-.21.39-.34-.39-.61-.24-.31.62-.47,1.49.09,1.72.2-.48.45.6.91.13Z"/>
          <path class="cls-1" d="M55.75,47.45c-.17.43-.38.16-.58-.58.62-2.83-.77-1.73.19-2.67.18,1.29.55-1.03.56.1,0-.37.1,1.51.1,2.1.02,1.31.23.51-.28,1.05Z"/>
          <path class="cls-1" d="M70.05,47.45c-.17,2.98-.38-.22-.58-.58.62-2.53-.77-5.8.19-2.67.18-.38.55.14.56.1,0-.43.1.64.1,2.1.02-.28.23,1.48-.28,1.05Z"/>
          <path class="cls-1" d="M70.35,43.12c-.2,1.74-.26-2.23-.32.28-.04.74-.22.93-.24-.08-.01.09.23-1.43.28-.31.18-.43.47-.91.28.11Z"/>
          <path class="cls-1" d="M56.06,43.12c-.2.78-.27,1.2-.32.28-.04.39-.22.11-.24-.08-.01-.59.23-.14.28-.31.18-.61.47-1.46.28.11Z"/>
          <path class="cls-1" d="M36.88,43.12c-.2.24-.26-.05-.32.28-.04,2.34-.22.93-.24-.08-.01,1.57.23.72.28-.31.18-.56.47,1.04.28.11Z"/>
          <g>
            <path class="cls-1" d="M32.75,46.65c-.21,1.04-.73.75-1.38.88-.8-1.1-1.5-1.75-2.39-.45.88-.74.65-2.67.5-2.88-.43,2.12-1.47-1.41-1.46-.42.1-.42,1.53-2.47,2.51-1.51.8-.48,1.6-1.76,2.23.74.27,2.47-.45-.41-.76.98-.17.13,0,.77-.08,2.57.28-1.63.42.45.83.1Z"/>
            <path class="cls-2" d="M30.45,45.56c0-.07-.08-2.61-.08-2.19-.35-.02-1.52,2.5-1.58-.18.19,1.98,1.52.69,1.91.05-.14,1.2-.18,2.44-.02,1.72-.08-.28.02-.69-.23.61Z"/>
            <path class="cls-2" d="M30.5,46.1c1.68-1.62.82.78,1.2-2.37.15,1.05.02,1.6.07,2.69-.48-.58-.9.4-1.27-.32Z"/>
          </g>
          <g>
            <path class="cls-1" d="M47.91,45.24c-.04-.73-.57-1.04-.68-.39-.4.87-.03,2.14-.06,2.19,0-.8-.48.24-.64.31-.81-.05.59-2.9-.62-2.66.18-.47.42-1.72.8-.6.25-.96.4-1.63.61.33.21.52.38-2.11.6-.34.37,1.16.53.15.82.48.32-1.73.46-1.36.76-.48,1.65,0-.25-.27.95,2.85.58-1.43-.7-2.97,1.25-3.06.31-1.32.56,2.1.91,1.13-.5.27-.83.87-1.35,1.18.3-.84.62-.57,1.05.63.06.12-.2-.28-.32.51-.26.12-.9-2.14-1.5-.36-.27-.65-.38-.5-.68.47-.19,1.85-.61-.86-.64-.51-.12-2.7.49-1.03.07-1.91-.13-1.17-.29-.96-.63-.07-.3.71.19,2.67.22,2.05-.14,1.46-.35,2.25-.56.46-.94-1.21-.24.12-.39-2.18Z"/>
            <path class="cls-2" d="M51.53,45.71c-.24,1.1-.39-2.1-.19-.75.14-.34.39.83.44.23.05-1.45.02,1.46-.24.52Z"/>
          </g>
          <g>
            <path class="cls-1" d="M45.99,46.92c-.3.55-.6,2.27-.88.68-.33-.59-.53-.89-.91-.89-.39,1.55-.66.77-1.07.87-.43-2.48-1.29-1.53-2.12-.84,1.14-1.43,1.38.64,2.32-1.15.39-1.36.27-1.22-.11-1.54-.24-1.37-.68-.92-1.12-.59-.6,1.64-.44,1.45-.67,1.61-.27-1.31.39-2.09,1.33-2.73.79,1.36,1.55,1.38,1.27,2.52-.18.84-.63-1.7-.99,1.35.34,1.24.73-.71,1.13.31,0,1.1.12-3.66.12-3.26.43.02,1.19-.99,1.63-.88-.13,3.65-.73.63-.61,1.67.07-.69.57,1.02.38,1.15-.13-1.39-.3.15-.31.82,0,.58.16-1,.62.91Z"/>
            <path class="cls-2" d="M44.47,46.28c-.15-1.11-.14-2.48,0-2.89.15-.37.14,3.38,0,2.89Z"/>
          </g>
          <g>
            <path class="cls-1" d="M68.39,47.58c-1-.78-1.98-1.5-3.01-.69.25,1.27.93-1.43.87-1.12,0,2.17-.31-2.24-.31-2.75.98,1.49,1.77-2.01,2.63-1,.3,1.35-.41,2.68.02,4.52.18,1.98.42.16.72-.07-.16-.31-.6-1.73-.92,1.12Z"/>
            <path class="cls-2" d="M68.29,46.43c-.62,1.26-1.05,1.54-1.65-.29,0-.5,1.43.21,1.43-1.09,0,.51.03-3.92.03-2.33,0-.81.16.14.33-.32.12,2.63-.2,2.21-.14,4.04Z"/>
            <path class="cls-2" d="M67.4,43.97c0,.68-.22.49-.22,1.48-.39-1.87-.39-2.02-.09-2.61.24.89.37-.71.31,1.13Z"/>
          </g>
          <path class="cls-2" d="M34.29,42.73c.21.81.13,1.01-.1,1.53-.14,1.19-.12-1.61.1-1.53Z"/>
          <g>
            <path class="cls-1" d="M59.97,47.12c0-.42-.82-1.42-.82.29-.17,2.32-.77-.68-.72-.44.19-.13,0-.89.1-2.35.35-.82.66,1.46,1.07-.64.37-.18.77,1.21,1.21.4-.52,3.31.56,2.58-.09,2.85-.29-1.48-.43-.66-.74-.1Z"/>
            <path class="cls-2" d="M59.95,46.71c-.17-2.04-.62-.15-.69-.3-.11-1.15-.14-.83.01-1.65.17.04.64.78.7.21.1-.18.12,2.31-.02,1.74Z"/>
          </g>
          <g>
            <path class="cls-1" d="M37.16,46.91c0,.72.47-2.27.47-.78.17-1.29-.33-1.12-.28-.87.24.43.87-.62,1.23-1.36.21.36.37.49.51.34.22-.66.55.24.38-.29-.07,1.1-.28,1.63-.38-.21-.15.31,0,1.48.14-.29.3,2.13.45.38.46.68.01.01-.52-1.62-.45.86,0,.98.4,1.41.4,1.43.12.44-.73,1.35-1.03,1.19-.43,1.2-.85-.09-1.45-.7Z"/>
            <path class="cls-2" d="M38.98,46.77c-.35-.38-.63,1.01-1.01-.56.15-1.59.27,1.6.53-.51.28,1.2.52,1.72.47,1.07Z"/>
            <path class="cls-2" d="M38.29,45.31c-.08-2.44-.27,2.98-.28-.3,0,1.04.2-1.36.26-.21.08,1.55.19-.7.3.13.12,1,.13.91.02.32-.07,1.02-.16-1.37-.3.06Z"/>
          </g>
          <g>
            <path class="cls-1" d="M74.5,46.83c.17-.16-.26.56-.46.54-.47.35-.87-.54-1.37-.45.55-.91-.65-2.17,1.24-2.97.36.15.54.46.93,1.05-.51-.6-.83,1.9-1.35,1.18.25-.69.56.96,1.02.65Z"/>
            <path class="cls-2" d="M73.74,45.71c-.23.82-.39-.79-.19-.75.14-.75.39,1.49.43.23.05.34.02,1.75-.24.52Z"/>
          </g>
        </g>
      </g>
    </g>
  </g>
</svg>